<?xml version="1.0" encoding="utf-8"?>
<!-- Generator: Adobe Illustrator 17.0.0, SVG Export Plug-In . SVG Version: 6.00 Build 0)  -->
<!DOCTYPE svg PUBLIC "-//W3C//DTD SVG 1.1//EN" "http://www.w3.org/Graphics/SVG/1.1/DTD/svg11.dtd">
<svg version="1.1" xmlns="http://www.w3.org/2000/svg" xmlns:xlink="http://www.w3.org/1999/xlink" x="0px" y="0px" width="1024px"
	 height="512px" viewBox="0 0 1024 512" enable-background="new 0 0 1024 512" xml:space="preserve">
<g id="Layer_2" display="none">
	<g display="inline">
		<rect y="0.001" fill-rule="evenodd" clip-rule="evenodd" fill="#B2D0D0" width="1024" height="511.998"/>
		<g>
			<g>
				<path fill-rule="evenodd" clip-rule="evenodd" fill="#FFFFFF" d="M611.5,141.3c2.833-2.867,4.25-6.316,4.25-10.35
					c0-4.034-1.417-7.467-4.25-10.3c-2.866-2.867-6.333-4.3-10.4-4.3c-4.033,0-7.466,1.433-10.3,4.3
					c-2.866,2.833-4.3,6.267-4.3,10.3c0,4.033,1.434,7.483,4.3,10.35c2.834,2.867,6.267,4.3,10.3,4.3
					C605.134,145.6,608.6,144.167,611.5,141.3z M615.05,117.1c3.8,3.8,5.7,8.417,5.7,13.85c0,5.433-1.9,10.066-5.7,13.9
					c-3.866,3.833-8.517,5.75-13.95,5.75c-5.433,0-10.05-1.934-13.85-5.8v0.05c-3.833-3.833-5.75-8.467-5.75-13.9
					c0-5.434,1.917-10.05,5.75-13.85c3.8-3.833,8.417-5.75,13.85-5.75c5.4,0,10.034,1.917,13.9,5.75H615.05z"/>
				<path fill-rule="evenodd" clip-rule="evenodd" fill="#F9D21B" d="M611.5,141.3c-2.9,2.867-6.366,4.3-10.4,4.3
					c-4.033,0-7.466-1.434-10.3-4.3c-2.866-2.867-4.3-6.316-4.3-10.35c0-4.034,1.434-7.467,4.3-10.3c2.834-2.867,6.267-4.3,10.3-4.3
					c4.067,0,7.534,1.433,10.4,4.3c2.833,2.833,4.25,6.267,4.25,10.3C615.75,134.983,614.333,138.433,611.5,141.3z"/>
			</g>
		</g>
		<path fill-rule="evenodd" clip-rule="evenodd" fill="#E0F3F9" d="M445.1,95.045c3.6,0,6.667,0.926,9.2,2.777
			c2.534,1.851,3.8,4.092,3.8,6.723c0,2.631-1.267,4.872-3.8,6.723c-2.533,1.851-5.6,2.777-9.2,2.777h-130
			c-3.6,0-6.667-0.926-9.2-2.777c-2.533-1.851-3.8-4.092-3.8-6.723c0-2.631,1.267-4.872,3.8-6.723s5.6-2.777,9.2-2.777H445.1z"/>
		<path fill-rule="evenodd" clip-rule="evenodd" fill="#F4F7E2" d="M380.75,257.75c-1.567,1.566-3.45,2.35-5.65,2.35H197.05
			c-2.2,0-4.083-0.783-5.65-2.35c-1.566-1.566-2.35-3.45-2.35-5.65c0-2.2,0.784-4.083,2.35-5.65c1.567-1.567,3.45-2.35,5.65-2.35
			H375.1c2.2,0,4.083,0.783,5.65,2.35c1.567,1.566,2.35,3.45,2.35,5.65C383.1,254.3,382.317,256.184,380.75,257.75z"/>
		<path fill-rule="evenodd" clip-rule="evenodd" fill="#E0F3F9" d="M304.05,240.15c-2.5,0-4.633-0.883-6.4-2.65
			c-1.733-1.733-2.6-3.85-2.6-6.35s0.867-4.633,2.6-6.4c1.767-1.733,3.9-2.6,6.4-2.6H436.1c2.5,0,4.617,0.867,6.35,2.6
			c1.767,1.767,2.65,3.9,2.65,6.4s-0.883,4.617-2.65,6.35c-1.733,1.767-3.85,2.65-6.35,2.65H304.05z"/>
		<path fill-rule="evenodd" clip-rule="evenodd" fill="#F4F7E2" d="M704.8,172.4c-1.733-1.733-2.6-3.85-2.6-6.35
			s0.866-4.633,2.6-6.4c1.767-1.733,3.9-2.6,6.4-2.6h90c2.5,0,4.616,0.867,6.35,2.6c1.767,1.767,2.65,3.9,2.65,6.4
			s-0.884,4.617-2.65,6.35c-1.733,1.767-3.85,2.65-6.35,2.65h-90C708.7,175.05,706.566,174.167,704.8,172.4z"/>
		<path fill-rule="evenodd" clip-rule="evenodd" fill="#E0F3F9" d="M892.25,130.05c2.767,0,5.116,0.967,7.05,2.9
			c1.967,1.966,2.95,4.333,2.95,7.1c0,2.767-0.983,5.117-2.95,7.05c-1.934,1.967-4.283,2.95-7.05,2.95H768.2
			c-2.767,0-5.134-0.983-7.101-2.95c-1.933-1.934-2.899-4.283-2.899-7.05c0-2.767,0.967-5.133,2.899-7.1
			c1.967-1.934,4.334-2.9,7.101-2.9H892.25z"/>
		<path fill-rule="evenodd" clip-rule="evenodd" fill="#F4F7E2" d="M736.55,98.4c-1.733,1.767-3.85,2.65-6.35,2.65h-80.05
			c-2.5,0-4.634-0.883-6.4-2.65c-1.733-1.733-2.6-3.85-2.6-6.35s0.866-4.633,2.6-6.4c1.767-1.733,3.9-2.6,6.4-2.6h80.05
			c2.5,0,4.616,0.867,6.35,2.6c1.767,1.767,2.65,3.9,2.65,6.4S738.316,96.666,736.55,98.4z"/>
		<path fill-rule="evenodd" clip-rule="evenodd" fill="#F4F7E2" d="M670.15,300.1c0,2.767-0.983,5.117-2.95,7.051
			c-1.934,1.966-4.283,2.949-7.05,2.949H540.1c-2.767,0-5.133-0.983-7.1-2.949c-1.934-1.934-2.9-4.284-2.9-7.051
			s0.967-5.133,2.9-7.1c1.967-1.934,4.333-2.9,7.1-2.9H660.15c2.767,0,5.116,0.967,7.05,2.9
			C669.167,294.967,670.15,297.333,670.15,300.1z"/>
		<path fill-rule="evenodd" clip-rule="evenodd" fill="#E0F3F9" d="M657.15,318.1c1.933,0,3.583,0.684,4.949,2.051
			c1.367,1.366,2.051,3.017,2.051,4.949c0,1.934-0.684,3.584-2.051,4.95c-1.366,1.367-3.017,2.05-4.949,2.05h-70
			c-1.934,0-3.584-0.683-4.95-2.05c-1.367-1.366-2.05-3.017-2.05-4.95c0-1.933,0.683-3.583,2.05-4.949
			c1.366-1.367,3.017-2.051,4.95-2.051H657.15z"/>
		<path fill-rule="evenodd" clip-rule="evenodd" fill="#E0F3F9" d="M663.15,317.1c1.933,0,3.583,0.684,4.949,2.051
			c1.367,1.366,2.051,3.017,2.051,4.949c0,1.934-0.684,3.584-2.051,4.95c-1.366,1.367-3.017,2.05-4.949,2.05h-70
			c-1.934,0-3.584-0.683-4.95-2.05c-1.367-1.366-2.05-3.017-2.05-4.95c0-1.933,0.683-3.583,2.05-4.949
			c1.366-1.367,3.017-2.051,4.95-2.051H663.15z"/>
	</g>
</g>
<g id="Layer_1">
	<g>
		<g>
			<g>
				<path fill-rule="evenodd" clip-rule="evenodd" fill="#585340" d="M832.8,133.5l1.2-8.7h65.85l-24.6,72.45l-7.6-3.7V143.9
					c-0.467,0.133-1.101,0.2-1.9,0.2c-2.434,0-3.816-1.2-4.15-3.6c-0.267-1.567-0.416-4.717-0.449-9.45
					c-0.301,0.167-1.667,0.434-4.101,0.8c-2.967,0.4-5.467,0.6-7.5,0.6c0.2,2.966,0.217,5.5,0.05,7.6
					c-0.366,4.133-1.716,6.2-4.05,6.2c-2.434,0-4.149-1.133-5.149-3.4c-0.4-0.9-1.2-4.067-2.4-9.5
					c-1.333,0.033-2.517,0.083-3.55,0.15C833.783,133.5,833.233,133.5,832.8,133.5z"/>
				<path fill-rule="evenodd" clip-rule="evenodd" fill="#9C8E47" d="M867.65,193.55l-14.301-6.9l-7.5-22.6l-15.1-15.85l2.05-14.7
					c0.434,0,0.983,0,1.65,0c1.033-0.067,2.217-0.117,3.55-0.15c1.2,5.433,2,8.6,2.4,9.5c1,2.267,2.716,3.4,5.149,3.4
					c2.334,0,3.684-2.067,4.05-6.2c0.167-2.1,0.15-4.633-0.05-7.6c2.033,0,4.533-0.2,7.5-0.6c2.434-0.367,3.8-0.633,4.101-0.8
					c0.033,4.733,0.183,7.883,0.449,9.45c0.334,2.4,1.717,3.6,4.15,3.6c0.8,0,1.434-0.067,1.9-0.2V193.55z"/>
			</g>
			<g>
				<path fill-rule="evenodd" clip-rule="evenodd" fill="#899448" d="M871.95,122H836.1c-0.1-0.334-0.149-0.683-0.149-1.05
					c0-0.7,0.25-1.3,0.75-1.8s1.1-0.75,1.8-0.75c0.3,0,0.55,0.05,0.75,0.15c0-0.166,0-0.316,0-0.45c0-0.9,0.3-1.667,0.9-2.3
					c0.666-0.6,1.433-0.9,2.3-0.9c0.833,0,1.55,0.3,2.149,0.9c0.534,0.467,0.851,1.034,0.95,1.7c0.134,0,0.283,0,0.45,0
					c0.3,0,0.566,0.067,0.8,0.2c-0.033-0.233-0.05-0.5-0.05-0.8c0-1.233,0.417-2.267,1.25-3.1c0.866-0.867,1.9-1.3,3.1-1.3
					c1.2,0,2.233,0.433,3.101,1.3c0.8,0.8,1.2,1.75,1.2,2.85c0.3-0.2,0.649-0.3,1.05-0.3c0.5,0,0.934,0.2,1.3,0.6
					c0.366,0.3,0.566,0.65,0.6,1.05h0.101c-0.167-0.5-0.25-1.017-0.25-1.55c0-1.733,0.6-3.2,1.8-4.4c1.2-1.166,2.667-1.75,4.4-1.75
					c1.666,0,3.1,0.584,4.3,1.75c1.2,1.2,1.8,2.667,1.8,4.4c0,0.333-0.033,0.683-0.1,1.05c0.1,0,0.199,0,0.3,0
					c0.733,0,1.316,0.217,1.75,0.65c0.467,0.5,0.7,1.083,0.7,1.75c0,0.667-0.233,1.217-0.7,1.65
					C872.316,121.717,872.15,121.867,871.95,122z"/>
			</g>
			<g>
				<path fill-rule="evenodd" clip-rule="evenodd" fill="#899448" d="M879.8,116.05c0.4,0.367,0.65,0.817,0.75,1.35
					c0.101,0,0.217,0,0.351,0c0.267,0,0.5,0.083,0.699,0.25c-0.066-0.267-0.1-0.517-0.1-0.75c0-1.066,0.384-1.95,1.15-2.65
					c0.699-0.7,1.583-1.05,2.649-1.05c1.033,0,1.9,0.35,2.601,1.05c0.733,0.633,1.1,1.467,1.1,2.5c0.233-0.166,0.533-0.25,0.9-0.25
					c0.399,0,0.767,0.15,1.1,0.45c0.267,0.3,0.45,0.6,0.55,0.9c2.467,0.3,3.467,1.433,3,3.4h-22.1
					c-0.101-0.233-0.15-0.517-0.15-0.85c0-0.6,0.2-1.117,0.601-1.55c0.466-0.4,1-0.6,1.6-0.6c0.233,0,0.467,0.017,0.7,0.05
					c0-0.133,0-0.25,0-0.35c0-0.767,0.25-1.4,0.75-1.9c0.5-0.566,1.116-0.85,1.85-0.85C878.566,115.2,879.233,115.483,879.8,116.05z
					"/>
			</g>
			<g>
				<g>
					<path fill-rule="evenodd" clip-rule="evenodd" fill="#F56C4A" d="M858.15,102.55c-1.134,0-2.167-0.433-3.101-1.3
						c-0.967-0.967-1.45-2.166-1.45-3.6c0-0.8,0.051-1.433,0.15-1.9c0.967,0.3,1.833,0.817,2.6,1.55
						c1.233,1.267,1.851,2.784,1.851,4.55C858.2,102.05,858.184,102.283,858.15,102.55z"/>
					<path fill-rule="evenodd" clip-rule="evenodd" fill="#F35730" d="M856.5,106.1c-0.5,0.2-1.134,0.35-1.9,0.45
						c-1.267,0.1-2.283,0.017-3.05-0.25c-0.733-0.267-1.383-0.55-1.95-0.85c-0.6-0.3-1.083-0.733-1.449-1.3
						c-0.167-0.233-0.351-0.617-0.551-1.15c-0.3-0.6-0.449-1.05-0.449-1.35c0-1.033,0.316-1.717,0.949-2.05
						c0.4-0.233,1.117-0.467,2.15-0.7c1.434-0.4,2.4-1.5,2.9-3.3c0.199,0.033,0.399,0.083,0.6,0.15c-0.1,0.467-0.15,1.1-0.15,1.9
						c0,1.434,0.483,2.633,1.45,3.6c0.934,0.867,1.967,1.3,3.101,1.3C858.017,103.883,857.467,105.067,856.5,106.1z"/>
					<path fill-rule="evenodd" clip-rule="evenodd" fill="#EB3A0E" d="M852.55,108.1c-0.2,0.033-0.416,0.05-0.649,0.05
						c-0.4,0-0.767-0.033-1.101-0.1c-1.267-0.2-2.399-0.8-3.399-1.8c-1.233-1.2-1.851-2.666-1.851-4.4
						c0-1.767,0.617-3.283,1.851-4.55c1.233-1.2,2.733-1.8,4.5-1.8c0.433,0,0.85,0.033,1.25,0.1c-0.5,1.8-1.467,2.9-2.9,3.3
						c-1.033,0.233-1.75,0.467-2.15,0.7c-0.633,0.333-0.949,1.017-0.949,2.05c0,0.3,0.149,0.75,0.449,1.35
						c0.2,0.533,0.384,0.916,0.551,1.15c0.366,0.567,0.85,1,1.449,1.3c0.567,0.3,1.217,0.583,1.95,0.85
						c0.767,0.267,1.783,0.35,3.05,0.25c0.767-0.1,1.4-0.25,1.9-0.45c-0.066,0.066-0.116,0.117-0.15,0.15
						C855.283,107.317,854.017,107.933,852.55,108.1z"/>
					<path fill-rule="evenodd" clip-rule="evenodd" fill="#573C21" d="M850.8,108.05c0.334,0.067,0.7,0.1,1.101,0.1
						c0.233,0,0.449-0.017,0.649-0.05v14.85c0,0.267-0.083,0.483-0.25,0.65c-0.166,0.167-0.366,0.25-0.6,0.25
						c-0.267,0-0.483-0.083-0.65-0.25c-0.166-0.167-0.25-0.383-0.25-0.65V108.05z"/>
				</g>
			</g>
			<g>
				<g>
					<path fill-rule="evenodd" clip-rule="evenodd" fill="#EB3A0E" d="M865.3,112.95c-0.033,0.066-0.066,0.117-0.1,0.15
						c-0.634,0.633-1.4,1-2.3,1.1c-0.167,0-0.301,0-0.4,0c-0.267,0-0.5-0.017-0.7-0.05c-0.8-0.1-1.5-0.45-2.1-1.05
						c-0.733-0.767-1.101-1.684-1.101-2.75c0-1.067,0.367-1.983,1.101-2.75c0.767-0.733,1.7-1.1,2.8-1.1
						c0.233,0,0.483,0.017,0.75,0.05c-0.3,1.1-0.884,1.784-1.75,2.05c-0.667,0.133-1.116,0.267-1.35,0.4
						c-0.367,0.2-0.551,0.617-0.551,1.25c0,0.166,0.084,0.45,0.25,0.85c0.101,0.3,0.2,0.533,0.301,0.7
						c0.233,0.334,0.533,0.584,0.899,0.75c0.367,0.2,0.767,0.383,1.2,0.55c0.467,0.167,1.083,0.217,1.85,0.15
						C864.6,113.183,865,113.084,865.3,112.95z"/>
					<path fill-rule="evenodd" clip-rule="evenodd" fill="#F35730" d="M866.3,110.8c-0.1,0.834-0.434,1.55-1,2.15
						c-0.3,0.133-0.7,0.233-1.2,0.3c-0.767,0.067-1.383,0.017-1.85-0.15c-0.434-0.167-0.833-0.35-1.2-0.55
						c-0.366-0.166-0.666-0.416-0.899-0.75c-0.101-0.166-0.2-0.4-0.301-0.7c-0.166-0.4-0.25-0.684-0.25-0.85
						c0-0.633,0.184-1.05,0.551-1.25c0.233-0.133,0.683-0.267,1.35-0.4c0.866-0.267,1.45-0.95,1.75-2.05
						c0.134,0,0.267,0.034,0.4,0.1c-0.101,0.3-0.15,0.684-0.15,1.15c0,0.867,0.3,1.6,0.9,2.2C865,110.533,865.634,110.8,866.3,110.8
						z"/>
					<path fill-rule="evenodd" clip-rule="evenodd" fill="#F56C4A" d="M863.65,106.65c0.566,0.2,1.083,0.517,1.55,0.95
						c0.733,0.767,1.1,1.683,1.1,2.75c0,0.133,0,0.283,0,0.45c-0.666,0-1.3-0.267-1.899-0.8c-0.601-0.6-0.9-1.334-0.9-2.2
						C863.5,107.334,863.55,106.95,863.65,106.65z"/>
					<path fill-rule="evenodd" clip-rule="evenodd" fill="#573C21" d="M862.9,114.2v9.1c0,0.133-0.051,0.267-0.15,0.4
						c-0.134,0.1-0.267,0.15-0.4,0.15c-0.166,0-0.3-0.05-0.399-0.15c-0.101-0.133-0.15-0.267-0.15-0.4v-9.15
						c0.2,0.033,0.434,0.05,0.7,0.05C862.6,114.2,862.733,114.2,862.9,114.2z"/>
				</g>
			</g>
			<g>
				<g>
					<path fill-rule="evenodd" clip-rule="evenodd" fill="#EB3A0E" d="M894.55,111.4c-0.166,0-0.316,0-0.45,0
						c-0.3,0-0.566-0.017-0.8-0.05c-0.967-0.167-1.8-0.6-2.5-1.3c-0.899-0.9-1.35-1.983-1.35-3.25c0-1.3,0.45-2.4,1.35-3.3
						c0.867-0.9,1.967-1.35,3.3-1.35c0.301,0,0.601,0.033,0.9,0.1c-0.366,1.3-1.066,2.1-2.1,2.4c-0.801,0.167-1.351,0.333-1.65,0.5
						c-0.434,0.267-0.65,0.767-0.65,1.5c0,0.2,0.101,0.55,0.301,1.05c0.166,0.333,0.3,0.6,0.399,0.8c0.267,0.4,0.634,0.7,1.101,0.9
						c0.399,0.267,0.866,0.483,1.399,0.65c0.566,0.2,1.316,0.25,2.25,0.15c0.601-0.034,1.084-0.133,1.45-0.3
						c-0.066,0.067-0.116,0.117-0.15,0.15C896.583,110.817,895.65,111.267,894.55,111.4z"/>
					<path fill-rule="evenodd" clip-rule="evenodd" fill="#F35730" d="M895.45,102.3c-0.101,0.367-0.15,0.834-0.15,1.4
						c0,1.033,0.367,1.916,1.101,2.65c0.699,0.633,1.466,0.95,2.3,0.95c-0.134,1-0.533,1.867-1.2,2.6
						c-0.366,0.167-0.85,0.267-1.45,0.3c-0.934,0.1-1.684,0.05-2.25-0.15c-0.533-0.166-1-0.383-1.399-0.65
						c-0.467-0.2-0.834-0.5-1.101-0.9c-0.1-0.2-0.233-0.467-0.399-0.8c-0.2-0.5-0.301-0.85-0.301-1.05c0-0.733,0.217-1.233,0.65-1.5
						c0.3-0.167,0.85-0.333,1.65-0.5c1.033-0.3,1.733-1.1,2.1-2.4C895.167,102.25,895.316,102.267,895.45,102.3z"/>
					<path fill-rule="evenodd" clip-rule="evenodd" fill="#F56C4A" d="M898.7,107.3c-0.834,0-1.601-0.316-2.3-0.95
						c-0.733-0.733-1.101-1.617-1.101-2.65c0-0.567,0.05-1.034,0.15-1.4c0.7,0.233,1.333,0.633,1.899,1.2c0.9,0.9,1.351,2,1.351,3.3
						C898.7,106.933,898.7,107.1,898.7,107.3z"/>
					<path fill-rule="evenodd" clip-rule="evenodd" fill="#573C21" d="M893.3,111.35c0.233,0.033,0.5,0.05,0.8,0.05
						c0.134,0,0.284,0,0.45,0v10.9c0,0.167-0.05,0.334-0.149,0.5c-0.167,0.1-0.334,0.15-0.5,0.15c-0.167,0-0.317-0.05-0.45-0.15
						c-0.101-0.166-0.15-0.333-0.15-0.5V111.35z"/>
				</g>
			</g>
			<g>
				<g>
					<path fill-rule="evenodd" clip-rule="evenodd" fill="#124C58" d="M829.2,124.45h73.5c0,1.166-0.4,2.166-1.2,3
						c-0.8,0.867-1.767,1.3-2.9,1.3H881.7c0.033,1.5,0,2.65-0.101,3.45c-0.033,0.233-0.066,0.45-0.1,0.65
						c-0.333,1.4-1.1,1.917-2.3,1.55c-0.434-0.3-0.667-0.816-0.7-1.55c-0.066-0.333-0.066-0.717,0-1.15
						c0.134-1.367,0.217-2.333,0.25-2.9h-8.1c-0.233,3.733-0.367,5.7-0.4,5.9c-0.366,2.066-1.316,3.1-2.85,3.1
						c-1.4,0-2.233-0.65-2.5-1.95c-0.034-0.233-0.15-2.6-0.351-7.1H846.8c0.167,1.667,0.084,4.05-0.25,7.15
						c-0.5,3.833-1.267,5.75-2.3,5.75c-1.634,0-2.684-1.55-3.15-4.65c-0.633-4-1.466-6.75-2.5-8.25h-5.3
						c-1.1,0-2.066-0.433-2.899-1.3C829.6,126.617,829.2,125.617,829.2,124.45z"/>
					<path fill-rule="evenodd" clip-rule="evenodd" fill="#1B6F81" d="M829.2,124.45c0-1.2,0.399-2.233,1.2-3.1
						c0.833-0.833,1.8-1.25,2.899-1.25h65.3c1.134,0,2.101,0.417,2.9,1.25c0.8,0.867,1.2,1.9,1.2,3.1H829.2z"/>
				</g>
			</g>
		</g>
		<g>
			<g>
				<path fill-rule="evenodd" clip-rule="evenodd" fill="#585340" d="M735,272.25l-1.9-8.9l78.9-0.55l-21.95,62.55l-19.3,8.2V280.3
					c-0.767-0.399-1.35-1.033-1.75-1.899c-0.434-1.034-0.733-3.134-0.9-6.301c-3.767-0.166-6.649-0.216-8.649-0.149
					c-3.634,0.033-5.434,0.983-5.4,2.85c-0.399,7.7-1.934,11.55-4.6,11.55c-3.566,0-6.217-4.633-7.95-13.899
					c-1.434,0-2.9-0.066-4.4-0.2H735z"/>
				<path fill-rule="evenodd" clip-rule="evenodd" fill="#9C8E47" d="M770.75,333.55l-5.6,2.351l-23.45-30.95l-6.7-32.7h2.1
					c1.5,0.134,2.967,0.2,4.4,0.2c1.733,9.267,4.384,13.899,7.95,13.899c2.666,0,4.2-3.85,4.6-11.55
					c-0.033-1.866,1.767-2.816,5.4-2.85c2-0.066,4.883-0.017,8.649,0.149c0.167,3.167,0.467,5.267,0.9,6.301
					c0.4,0.866,0.983,1.5,1.75,1.899V333.55z"/>
			</g>
			<g>
				<path fill-rule="evenodd" clip-rule="evenodd" fill="#899448" d="M761.1,254.85c-0.033-0.267-0.05-0.55-0.05-0.85
					c0-1.2,0.417-2.233,1.25-3.1c0.834-0.833,1.867-1.25,3.101-1.25c1.199,0,2.216,0.417,3.05,1.25c0.8,0.8,1.233,1.767,1.3,2.9
					c0.3-0.167,0.634-0.25,1-0.25c0.533,0,0.983,0.184,1.35,0.55c0.301,0.3,0.483,0.65,0.551,1.05h0.05
					c-0.134-0.5-0.2-1.033-0.2-1.6c0-1.7,0.6-3.133,1.8-4.3c1.233-1.2,2.684-1.8,4.351-1.8c1.699,0,3.133,0.6,4.3,1.8
					c1.233,1.167,1.85,2.6,1.85,4.3c0,0.367-0.033,0.733-0.1,1.1c0.1,0,0.217,0,0.35,0c0.667,0,1.233,0.233,1.7,0.7
					s0.7,1.034,0.7,1.7c0,0.667-0.233,1.233-0.7,1.7c-0.167,0.134-0.333,0.267-0.5,0.4H750.4c-0.101-0.334-0.15-0.667-0.15-1
					c0-0.733,0.233-1.351,0.7-1.851c0.533-0.5,1.149-0.75,1.85-0.75c0.267,0,0.533,0.034,0.8,0.1c-0.033-0.133-0.05-0.283-0.05-0.45
					c0-0.867,0.3-1.6,0.9-2.2c0.633-0.6,1.383-0.9,2.25-0.9c0.866,0,1.616,0.3,2.25,0.9c0.467,0.467,0.767,1.017,0.899,1.65
					c0.101,0,0.233,0,0.4,0C760.55,254.65,760.833,254.717,761.1,254.85z"/>
			</g>
			<g>
				<path fill-rule="evenodd" clip-rule="evenodd" fill="#899448" d="M808.85,258.45h-22.1c-0.1-0.267-0.15-0.55-0.15-0.851
					c0-0.633,0.2-1.166,0.601-1.6c0.467-0.433,1-0.65,1.6-0.65c0.233,0,0.45,0.033,0.65,0.1c0-0.133,0-0.267,0-0.4
					c0-0.733,0.25-1.367,0.75-1.9c0.533-0.533,1.166-0.8,1.899-0.8c0.767,0,1.417,0.267,1.95,0.8c0.4,0.4,0.65,0.883,0.75,1.45
					c0.101-0.033,0.217-0.05,0.351-0.05c0.3,0,0.55,0.083,0.75,0.25c-0.034-0.267-0.051-0.517-0.051-0.75
					c0-1.033,0.367-1.917,1.101-2.65c0.7-0.733,1.566-1.1,2.6-1.1c1.066,0,1.95,0.367,2.65,1.1c0.7,0.667,1.066,1.483,1.1,2.45
					c0.267-0.133,0.55-0.2,0.851-0.2c0.433,0,0.816,0.15,1.149,0.45c0.267,0.267,0.434,0.566,0.5,0.9h0.05
					C808.316,255.3,809.316,256.45,808.85,258.45z"/>
			</g>
			<g>
				<g>
					<path fill-rule="evenodd" clip-rule="evenodd" fill="#EB3A0E" d="M753.25,234.85c-0.533,1.8-1.533,2.9-3,3.3
						c-1.066,0.267-1.8,0.5-2.2,0.7c-0.633,0.367-0.95,1.066-0.95,2.1c0,0.3,0.15,0.767,0.45,1.4c0.2,0.5,0.384,0.867,0.55,1.1
						c0.367,0.6,0.867,1.033,1.5,1.3c0.567,0.333,1.217,0.633,1.95,0.9c0.8,0.267,1.834,0.35,3.101,0.25
						c0.833-0.1,1.483-0.25,1.949-0.45c-0.066,0.066-0.116,0.133-0.149,0.2c-1.066,1.067-2.351,1.684-3.851,1.85
						c-0.233,0-0.449,0-0.649,0c-0.434,0-0.816-0.033-1.15-0.1c-1.3-0.2-2.45-0.783-3.45-1.75c-1.233-1.233-1.85-2.733-1.85-4.5
						s0.616-3.3,1.85-4.6c1.233-1.233,2.767-1.85,4.601-1.85C752.35,234.7,752.783,234.75,753.25,234.85z"/>
					<path fill-rule="evenodd" clip-rule="evenodd" fill="#F35730" d="M753.85,234.95c-0.166,0.5-0.25,1.15-0.25,1.95
						c0,1.434,0.517,2.633,1.551,3.6c0.933,0.9,1.983,1.35,3.149,1.35c-0.166,1.367-0.733,2.566-1.7,3.6
						c-0.466,0.2-1.116,0.35-1.949,0.45c-1.267,0.1-2.301,0.017-3.101-0.25c-0.733-0.267-1.383-0.566-1.95-0.9
						c-0.633-0.267-1.133-0.7-1.5-1.3c-0.166-0.233-0.35-0.6-0.55-1.1c-0.3-0.633-0.45-1.1-0.45-1.4c0-1.034,0.317-1.733,0.95-2.1
						c0.4-0.2,1.134-0.434,2.2-0.7c1.467-0.4,2.467-1.5,3-3.3C753.45,234.85,753.65,234.883,753.85,234.95z"/>
					<path fill-rule="evenodd" clip-rule="evenodd" fill="#F56C4A" d="M758.3,241.85c-1.166,0-2.217-0.45-3.149-1.35
						c-1.034-0.967-1.551-2.167-1.551-3.6c0-0.8,0.084-1.45,0.25-1.95c0.934,0.333,1.801,0.867,2.601,1.6
						c1.233,1.3,1.85,2.833,1.85,4.6C758.3,241.35,758.3,241.583,758.3,241.85z"/>
					<path fill-rule="evenodd" clip-rule="evenodd" fill="#573C21" d="M752.6,247.5v15.05c0,0.233-0.083,0.45-0.25,0.65
						c-0.199,0.166-0.416,0.25-0.649,0.25c-0.267,0-0.483-0.084-0.65-0.25c-0.166-0.2-0.25-0.417-0.25-0.65V247.4
						c0.334,0.067,0.717,0.1,1.15,0.1C752.15,247.5,752.366,247.5,752.6,247.5z"/>
				</g>
			</g>
			<g>
				<g>
					<path fill-rule="evenodd" clip-rule="evenodd" fill="#EB3A0E" d="M800.3,251.2c-0.2,0-0.366,0-0.5,0
						c-0.267,0-0.517-0.017-0.75-0.05c-0.934-0.133-1.75-0.55-2.45-1.25c-0.866-0.867-1.3-1.917-1.3-3.15s0.434-2.317,1.3-3.25
						c0.867-0.833,1.934-1.25,3.2-1.25c0.3,0,0.601,0.017,0.9,0.05c-0.334,1.267-1.017,2.067-2.05,2.4
						c-0.767,0.133-1.284,0.267-1.551,0.4c-0.466,0.3-0.699,0.8-0.699,1.5c0,0.2,0.1,0.533,0.3,1c0.166,0.367,0.316,0.633,0.45,0.8
						c0.233,0.4,0.566,0.7,1,0.9c0.433,0.233,0.899,0.434,1.399,0.6c0.566,0.2,1.283,0.267,2.15,0.2
						c0.6-0.067,1.066-0.167,1.399-0.3c-0.033,0.067-0.066,0.1-0.1,0.1C802.267,250.667,801.366,251.1,800.3,251.2z"/>
					<path fill-rule="evenodd" clip-rule="evenodd" fill="#F35730" d="M801.2,242.4c-0.167,0.333-0.25,0.767-0.25,1.3
						c0,1.033,0.383,1.9,1.149,2.6c0.667,0.667,1.384,1,2.15,1c-0.1,0.934-0.483,1.767-1.15,2.5c-0.333,0.133-0.8,0.233-1.399,0.3
						c-0.867,0.066-1.584,0-2.15-0.2c-0.5-0.167-0.967-0.367-1.399-0.6c-0.434-0.2-0.767-0.5-1-0.9
						c-0.134-0.167-0.284-0.433-0.45-0.8c-0.2-0.467-0.3-0.8-0.3-1c0-0.7,0.233-1.2,0.699-1.5c0.267-0.133,0.784-0.267,1.551-0.4
						c1.033-0.333,1.716-1.133,2.05-2.4C800.866,242.3,801.033,242.333,801.2,242.4z"/>
					<path fill-rule="evenodd" clip-rule="evenodd" fill="#F56C4A" d="M804.25,247.3c-0.767,0-1.483-0.333-2.15-1
						c-0.767-0.7-1.149-1.566-1.149-2.6c0-0.534,0.083-0.967,0.25-1.3c0.633,0.233,1.233,0.6,1.8,1.1
						c0.833,0.933,1.25,2.017,1.25,3.25C804.25,246.883,804.25,247.067,804.25,247.3z"/>
					<path fill-rule="evenodd" clip-rule="evenodd" fill="#573C21" d="M799.05,251.15c0.233,0.033,0.483,0.05,0.75,0.05
						c0.134,0,0.3,0,0.5,0v10.6c0,0.167-0.066,0.316-0.2,0.45c-0.133,0.134-0.283,0.2-0.449,0.2c-0.167,0-0.317-0.066-0.45-0.2
						c-0.101-0.134-0.15-0.283-0.15-0.45V251.15z"/>
				</g>
			</g>
			<g>
				<g>
					<path fill-rule="evenodd" clip-rule="evenodd" fill="#124C58" d="M730.35,263.1h84.4c0,1.301-0.467,2.4-1.4,3.301
						c-0.933,0.966-2.05,1.449-3.35,1.449h-19.35c0.033,1.634-0.017,2.9-0.15,3.801c-0.033,0.233-0.066,0.466-0.1,0.699
						c-0.367,1.5-1.25,2.067-2.65,1.7c-0.467-0.333-0.733-0.899-0.8-1.7c-0.066-0.399-0.066-0.833,0-1.3
						c0.166-1.467,0.267-2.517,0.3-3.149h-9.3c-0.267,4.1-0.417,6.267-0.45,6.5c-0.434,2.233-1.533,3.35-3.3,3.35
						c-1.601,0-2.55-0.717-2.851-2.15c-0.033-0.233-0.183-2.816-0.449-7.75H750.55c0.2,1.834,0.101,4.434-0.3,7.801
						c-0.566,4.233-1.434,6.35-2.6,6.35c-1.867,0-3.084-1.7-3.65-5.1c-0.7-4.4-1.65-7.417-2.85-9.051H735.1
						c-1.3,0-2.433-0.483-3.399-1.449C730.8,265.5,730.35,264.4,730.35,263.1z"/>
					<path fill-rule="evenodd" clip-rule="evenodd" fill="#1B6F81" d="M730.35,263.1c0-1.3,0.45-2.416,1.351-3.35
						c0.967-0.934,2.1-1.4,3.399-1.4H810c1.3,0,2.417,0.467,3.35,1.4c0.934,0.934,1.4,2.05,1.4,3.35H730.35z"/>
				</g>
			</g>
		</g>
		<g>
			<g>
				<path fill-rule="evenodd" clip-rule="evenodd" fill="#585340" d="M470.95,254.25l-5.05-12.1l61.2-1.35l-12.3,24.65l-0.55,16.45
					l-17.4,31.899v-53.75c-0.067,0-0.133,0-0.2,0c-2.467,0-4.05-0.733-4.75-2.2c-0.533-1.066-0.867-3.55-1-7.45h-0.85
					c-1.166,0.167-2.15,0.25-2.95,0.25c-3.434,0-5.783,0-7.05,0c-0.233,2.6-0.433,4.667-0.6,6.2c-0.4,2.867-1.3,4.301-2.7,4.301
					c-0.467,0-1.1-0.217-1.9-0.65c-0.767-0.434-1.317-0.9-1.65-1.4c-0.233-0.399-0.767-1.633-1.6-3.7
					C471.367,254.967,471.15,254.583,470.95,254.25z"/>
				<path fill-rule="evenodd" clip-rule="evenodd" fill="#9C8E47" d="M496.85,313.8l-0.55,0.95l-25.35-60.5
					c0.2,0.333,0.417,0.717,0.65,1.15c0.833,2.067,1.367,3.3,1.6,3.7c0.333,0.5,0.883,0.967,1.65,1.4c0.8,0.434,1.433,0.65,1.9,0.65
					c1.4,0,2.3-1.434,2.7-4.301c0.167-1.533,0.367-3.6,0.6-6.2c1.267,0,3.617,0,7.05,0c0.8,0,1.783-0.083,2.95-0.25h0.85
					c0.133,3.9,0.467,6.383,1,7.45c0.7,1.467,2.283,2.2,4.75,2.2c0.067,0,0.133,0,0.2,0V313.8z"/>
			</g>
			<g>
				<path fill-rule="evenodd" clip-rule="evenodd" fill="#899448" d="M485,232.3c0.7,0.7,1.083,1.534,1.15,2.5
					c0.233-0.133,0.517-0.2,0.85-0.2c0.467,0,0.867,0.15,1.2,0.45c0.267,0.3,0.433,0.617,0.5,0.95h0.05
					c-0.133-0.433-0.2-0.9-0.2-1.4c0-1.467,0.534-2.733,1.6-3.8c1.067-1.033,2.333-1.55,3.8-1.55c1.466,0,2.733,0.517,3.8,1.55
					c1.067,1.067,1.6,2.333,1.6,3.8c0,0.333-0.017,0.667-0.05,1c0.067-0.033,0.15-0.05,0.25-0.05c0.6,0,1.1,0.2,1.5,0.6
					c0.434,0.434,0.65,0.934,0.65,1.5c0,0.6-0.217,1.1-0.65,1.5c-0.133,0.133-0.267,0.25-0.4,0.35h-31.5
					c-0.1-0.267-0.15-0.55-0.15-0.85c0-0.667,0.217-1.217,0.65-1.65c0.467-0.433,1.017-0.65,1.65-0.65c0.233,0,0.45,0.033,0.65,0.1
					c0-0.133,0-0.267,0-0.4c0-0.767,0.267-1.417,0.8-1.95s1.183-0.8,1.95-0.8c0.767,0,1.417,0.267,1.95,0.8
					c0.434,0.4,0.7,0.9,0.8,1.5c0.1-0.033,0.216-0.05,0.35-0.05c0.267,0,0.517,0.067,0.75,0.2c-0.033-0.233-0.05-0.483-0.05-0.75
					c0-1.067,0.367-1.967,1.1-2.7c0.733-0.733,1.633-1.1,2.7-1.1C483.367,231.2,484.267,231.567,485,232.3z"/>
			</g>
			<g>
				<path fill-rule="evenodd" clip-rule="evenodd" fill="#899448" d="M505.75,233.55c0.666,0,1.233,0.233,1.7,0.7
					c0.367,0.367,0.6,0.783,0.7,1.25c0.067,0,0.167,0,0.3,0c0.233,0,0.45,0.067,0.65,0.2c-0.033-0.233-0.05-0.45-0.05-0.65
					c0-0.933,0.317-1.716,0.95-2.35s1.4-0.95,2.3-0.95c0.934,0,1.7,0.317,2.3,0.95c0.634,0.6,0.967,1.333,1,2.2
					c0.233-0.133,0.483-0.2,0.75-0.2c0.367,0,0.7,0.133,1,0.4c0.233,0.233,0.384,0.483,0.45,0.75c2.167,0.267,3.05,1.283,2.65,3.05
					h-19.4c-0.1-0.233-0.15-0.483-0.15-0.75c0-0.566,0.184-1.033,0.55-1.4c0.433-0.367,0.917-0.55,1.45-0.55
					c0.167,0,0.35,0.017,0.55,0.05c-0.034-0.1-0.05-0.2-0.05-0.3c0-0.667,0.233-1.233,0.7-1.7S505.117,233.55,505.75,233.55z"/>
			</g>
			<g>
				<g>
					<path fill-rule="evenodd" clip-rule="evenodd" fill="#F56C4A" d="M475.6,212.9c0.933,0.3,1.767,0.817,2.5,1.55
						c1.2,1.2,1.8,2.667,1.8,4.4c0,0.233,0,0.467,0,0.7c-1.133,0-2.15-0.417-3.05-1.25c-0.967-0.966-1.45-2.15-1.45-3.55
						C475.4,213.983,475.467,213.367,475.6,212.9z"/>
					<path fill-rule="evenodd" clip-rule="evenodd" fill="#F35730" d="M479.9,219.55c-0.167,1.3-0.7,2.467-1.6,3.5
						c-0.5,0.167-1.133,0.3-1.9,0.4c-1.267,0.133-2.25,0.066-2.95-0.2c-0.733-0.267-1.383-0.55-1.95-0.85
						c-0.6-0.3-1.084-0.733-1.45-1.3c-0.133-0.2-0.316-0.55-0.55-1.05c-0.267-0.633-0.4-1.083-0.4-1.35c0-1,0.316-1.684,0.95-2.05
						c0.367-0.2,1.067-0.417,2.1-0.65c1.4-0.4,2.35-1.483,2.85-3.25c0.2,0.033,0.4,0.083,0.6,0.15c-0.133,0.467-0.2,1.083-0.2,1.85
						c0,1.4,0.483,2.583,1.45,3.55C477.75,219.133,478.767,219.55,479.9,219.55z"/>
					<path fill-rule="evenodd" clip-rule="evenodd" fill="#EB3A0E" d="M475,212.75c-0.5,1.767-1.45,2.85-2.85,3.25
						c-1.033,0.233-1.733,0.45-2.1,0.65c-0.633,0.367-0.95,1.05-0.95,2.05c0,0.267,0.133,0.716,0.4,1.35
						c0.233,0.5,0.416,0.85,0.55,1.05c0.367,0.566,0.85,1,1.45,1.3c0.567,0.3,1.217,0.583,1.95,0.85c0.7,0.267,1.683,0.333,2.95,0.2
						c0.767-0.1,1.4-0.233,1.9-0.4c-0.1,0.067-0.166,0.117-0.2,0.15c-1.033,1.033-2.267,1.633-3.7,1.8c-0.2,0-0.417,0-0.65,0
						c-0.4,0-0.767-0.017-1.1-0.05c-1.233-0.2-2.333-0.784-3.3-1.75c-1.2-1.2-1.8-2.65-1.8-4.35c0-1.733,0.6-3.2,1.8-4.4
						c1.2-1.2,2.667-1.8,4.4-1.8C474.15,212.65,474.567,212.683,475,212.75z"/>
					<path fill-rule="evenodd" clip-rule="evenodd" fill="#573C21" d="M474.4,225v14.5c0,0.267-0.083,0.483-0.25,0.65
						c-0.167,0.167-0.367,0.25-0.6,0.25c-0.267,0-0.483-0.083-0.65-0.25c-0.167-0.167-0.25-0.383-0.25-0.65v-14.55
						c0.333,0.033,0.7,0.05,1.1,0.05C473.983,225,474.2,225,474.4,225z"/>
				</g>
			</g>
			<g>
				<g>
					<path fill-rule="evenodd" clip-rule="evenodd" fill="#EB3A0E" d="M515.05,231.65c-0.166,0-0.316,0-0.45,0
						c-0.3,0-0.55-0.017-0.75-0.05c-0.899-0.133-1.683-0.55-2.35-1.25c-0.867-0.833-1.3-1.85-1.3-3.05c0-1.167,0.433-2.2,1.3-3.1
						c0.833-0.833,1.866-1.25,3.1-1.25c0.267,0,0.551,0.017,0.851,0.05c-0.334,1.233-1,2-2,2.3c-0.733,0.167-1.233,0.317-1.5,0.45
						c-0.434,0.267-0.65,0.733-0.65,1.4c0,0.233,0.1,0.567,0.3,1c0.133,0.333,0.267,0.583,0.4,0.75c0.233,0.4,0.566,0.7,1,0.9
						c0.4,0.233,0.833,0.417,1.3,0.55c0.566,0.2,1.283,0.267,2.15,0.2c0.566-0.066,1-0.167,1.3-0.3c-0.033,0.067-0.066,0.1-0.1,0.1
						C516.95,231.117,516.083,231.55,515.05,231.65z"/>
					<path fill-rule="evenodd" clip-rule="evenodd" fill="#F35730" d="M517.75,230.25c-0.3,0.133-0.733,0.233-1.3,0.3
						c-0.867,0.067-1.584,0-2.15-0.2c-0.467-0.133-0.899-0.317-1.3-0.55c-0.434-0.2-0.767-0.5-1-0.9
						c-0.133-0.167-0.267-0.417-0.4-0.75c-0.2-0.433-0.3-0.767-0.3-1c0-0.667,0.217-1.133,0.65-1.4
						c0.267-0.133,0.767-0.283,1.5-0.45c1-0.3,1.666-1.066,2-2.3c0.166,0,0.316,0.033,0.45,0.1c-0.134,0.367-0.2,0.8-0.2,1.3
						c0,1,0.366,1.833,1.1,2.5c0.634,0.633,1.334,0.95,2.101,0.95C518.8,228.75,518.417,229.55,517.75,230.25z"/>
					<path fill-rule="evenodd" clip-rule="evenodd" fill="#F56C4A" d="M518.9,227.85c-0.767,0-1.467-0.317-2.101-0.95
						c-0.733-0.667-1.1-1.5-1.1-2.5c0-0.5,0.066-0.933,0.2-1.3c0.633,0.233,1.216,0.6,1.75,1.1c0.833,0.9,1.25,1.933,1.25,3.1
						C518.9,227.467,518.9,227.65,518.9,227.85z"/>
					<path fill-rule="evenodd" clip-rule="evenodd" fill="#573C21" d="M513.85,231.6c0.2,0.033,0.45,0.05,0.75,0.05
						c0.134,0,0.284,0,0.45,0v10.2c0,0.167-0.05,0.316-0.149,0.45c-0.134,0.133-0.284,0.2-0.45,0.2c-0.2,0-0.351-0.067-0.45-0.2
						s-0.15-0.283-0.15-0.45V231.6z"/>
				</g>
			</g>
			<g>
				<g>
					<path fill-rule="evenodd" clip-rule="evenodd" fill="#1B6F81" d="M529.5,242.75h-67.4c0-1,0.367-1.867,1.1-2.6
						c0.767-0.8,1.667-1.2,2.7-1.2h59.85c1.033,0,1.917,0.4,2.65,1.2C529.134,240.883,529.5,241.75,529.5,242.75z"/>
					<path fill-rule="evenodd" clip-rule="evenodd" fill="#124C58" d="M462.1,242.75h67.4c0,1.067-0.366,1.95-1.1,2.65
						c-0.733,0.767-1.617,1.15-2.65,1.15h-15.5c0.033,1.333,0.017,2.35-0.05,3.05c-0.067,0.2-0.117,0.4-0.15,0.6
						c-0.267,1.2-0.966,1.65-2.1,1.35c-0.333-0.267-0.55-0.716-0.65-1.35c-0.033-0.333-0.033-0.684,0-1.05
						c0.167-1.2,0.267-2.05,0.3-2.55h-7.5c-0.167,3.3-0.283,5.033-0.35,5.2c-0.3,1.767-1.167,2.65-2.6,2.65
						c-1.267,0-2.033-0.567-2.3-1.7c-0.033-0.2-0.15-2.267-0.35-6.2h-16.25c-0.367-0.033-0.75-0.05-1.15-0.05
						c-0.133,2.433-0.233,3.717-0.3,3.85c-0.3,1.767-1.166,2.65-2.6,2.65c-1.267,0-2.017-0.567-2.25-1.7
						c-0.034-0.167-0.117-1.767-0.25-4.8c-0.367,0-0.7,0.017-1,0.05h-4.8c-1.033,0-1.933-0.383-2.7-1.15
						C462.467,244.7,462.1,243.817,462.1,242.75z"/>
				</g>
			</g>
		</g>
		<g display="none">
			<g display="inline">
				<path fill-rule="evenodd" clip-rule="evenodd" fill="#9C8E47" d="M206.268,303.498l-28.133-23.667l-6.818-39.732l-13.714-25.234
					c2.299-0.313,4.101-1.202,5.408-2.664c1.619-1.933,2.821-5.042,3.605-9.326c0.784-4.336,1.124-7.759,1.019-10.266
					c-0.052-2.56-0.078-3.971-0.078-4.232c4.963-2.142,9.195-2.978,12.696-2.508c4.493,0.627,7.654,0.889,9.482,0.784
					c0.784,2.665,1.306,4.519,1.567,5.564c0.366,3.813,1.019,6.948,1.959,9.404c1.776,4.702,4.989,7.053,9.639,7.053
					c0.993,0,1.829-0.706,2.508-2.116c0.261-0.366,0.549-0.941,0.862-1.724V303.498z"/>
				<path fill-rule="evenodd" clip-rule="evenodd" fill="#585340" d="M157.602,214.864l-30.485-55.876l151.72,1.567l-44.591,86.282
					l-20.297,63.008l-7.681-6.348v-98.665c-0.313,0.784-0.601,1.358-0.862,1.724c-0.679,1.41-1.515,2.116-2.508,2.116
					c-4.65,0-7.863-2.351-9.639-7.053c-0.941-2.456-1.593-5.591-1.959-9.404c-0.261-1.045-0.784-2.9-1.567-5.564
					c-1.828,0.105-4.989-0.157-9.482-0.784c-3.501-0.47-7.733,0.366-12.696,2.508c0,0.261,0.026,1.672,0.078,4.232
					c0.105,2.507-0.235,5.93-1.019,10.266c-0.784,4.284-1.985,7.393-3.605,9.326C161.703,213.662,159.901,214.551,157.602,214.864z"
					/>
			</g>
			<g display="inline">
				<path fill-rule="evenodd" clip-rule="evenodd" fill="#899448" d="M213.008,141.434c0,0.941-0.052,1.907-0.157,2.9
					c0.261-0.052,0.549-0.078,0.862-0.078c1.724,0,3.214,0.601,4.467,1.802c1.306,1.306,1.959,2.821,1.959,4.545
					c0,1.776-0.653,3.265-1.959,4.467c-0.366,0.366-0.784,0.732-1.254,1.097h-94.981c-0.314-0.837-0.47-1.724-0.47-2.665
					c0-1.933,0.627-3.579,1.88-4.937c1.463-1.254,3.109-1.881,4.937-1.881c0.732,0,1.411,0.079,2.038,0.235
					c-0.052-0.365-0.079-0.757-0.079-1.176c0-2.298,0.811-4.257,2.43-5.878c1.671-1.619,3.631-2.429,5.878-2.429
					c2.351,0,4.336,0.81,5.956,2.429c1.254,1.254,2.064,2.743,2.43,4.467c0.313-0.052,0.653-0.078,1.019-0.078
					c0.836,0,1.619,0.183,2.351,0.549c-0.157-0.68-0.235-1.411-0.235-2.195c0-3.239,1.097-5.982,3.291-8.229
					c2.299-2.194,5.042-3.291,8.229-3.291c3.24,0,5.956,1.097,8.15,3.291c2.142,2.09,3.266,4.624,3.37,7.602
					c0.784-0.418,1.672-0.627,2.665-0.627c1.41,0,2.586,0.47,3.527,1.41c0.888,0.836,1.41,1.776,1.567,2.822h0.078
					c-0.313-1.358-0.47-2.743-0.47-4.154c0-4.545,1.593-8.385,4.78-11.519c3.24-3.187,7.079-4.781,11.52-4.781
					c4.441,0,8.255,1.593,11.441,4.781C211.415,133.049,213.008,136.888,213.008,141.434z"/>
			</g>
			<g display="inline">
				<path fill-rule="evenodd" clip-rule="evenodd" fill="#899448" d="M264.339,141.59c1.202,0,2.22,0.418,3.056,1.254
					c0.68,0.731,1.123,1.514,1.332,2.351h0.079c6.53,0.784,9.168,3.813,7.915,9.09H218.18c-0.261-0.679-0.392-1.411-0.392-2.194
					c0-1.672,0.549-3.109,1.646-4.31c1.201-1.097,2.612-1.646,4.231-1.646c0.575,0,1.176,0.079,1.802,0.236
					c-0.104-0.314-0.156-0.628-0.156-0.941c0-2.038,0.679-3.735,2.037-5.094c1.41-1.41,3.109-2.116,5.094-2.116
					c1.985,0,3.683,0.706,5.094,2.116c1.098,1.045,1.776,2.299,2.037,3.761c0.262-0.052,0.575-0.078,0.941-0.078
					c0.732,0,1.385,0.209,1.959,0.627c-0.104-0.68-0.157-1.332-0.157-1.959c0-2.769,0.967-5.12,2.9-7.053
					c1.933-1.881,4.258-2.822,6.975-2.822c2.769,0,5.094,0.941,6.974,2.822c1.829,1.776,2.796,3.97,2.9,6.582
					C262.745,141.799,263.503,141.59,264.339,141.59z"/>
			</g>
			<g display="inline">
				<g>
					<path fill-rule="evenodd" clip-rule="evenodd" fill="#EB3A0E" d="M216.691,115.886c-0.628,0.052-1.254,0.078-1.881,0.078
						c-0.941,0-1.881-0.078-2.821-0.235c-3.344-0.522-6.269-2.063-8.777-4.623c-3.24-3.188-4.859-7.053-4.859-11.599
						c0-4.493,1.619-8.359,4.859-11.598c3.239-3.239,7.105-4.859,11.598-4.859c1.15,0,2.246,0.105,3.292,0.314
						c-1.306,4.65-3.788,7.523-7.445,8.62c-2.769,0.627-4.65,1.201-5.643,1.724c-1.672,0.941-2.508,2.717-2.508,5.329
						c0,0.784,0.392,2.011,1.176,3.683c0.575,1.358,1.046,2.299,1.41,2.821c0.941,1.463,2.195,2.613,3.762,3.449
						c1.515,0.732,3.239,1.463,5.172,2.194c1.933,0.679,4.545,0.862,7.837,0.549c2.09-0.209,3.762-0.549,5.016-1.019
						c-0.157,0.104-0.314,0.235-0.471,0.392C223.692,113.875,220.453,115.468,216.691,115.886z"/>
					<path fill-rule="evenodd" clip-rule="evenodd" fill="#F35730" d="M219.669,83.834c-0.314,1.149-0.471,2.77-0.471,4.859
						c0,3.71,1.306,6.818,3.918,9.326c2.404,2.246,5.068,3.37,7.994,3.37h0.079c-0.366,3.501-1.803,6.609-4.31,9.326
						c-1.254,0.47-2.926,0.81-5.016,1.019c-3.292,0.313-5.904,0.13-7.837-0.549c-1.933-0.732-3.657-1.463-5.172-2.194
						c-1.567-0.836-2.822-1.985-3.762-3.449c-0.365-0.522-0.836-1.462-1.41-2.821c-0.784-1.672-1.176-2.9-1.176-3.683
						c0-2.612,0.836-4.388,2.508-5.329c0.993-0.523,2.874-1.097,5.643-1.724c3.657-1.098,6.139-3.97,7.445-8.62
						C218.624,83.468,219.146,83.624,219.669,83.834z"/>
					<path fill-rule="evenodd" clip-rule="evenodd" fill="#F56C4A" d="M231.189,101.388h-0.079c-2.926,0-5.59-1.123-7.994-3.37
						c-2.612-2.508-3.918-5.617-3.918-9.326c0-2.089,0.157-3.709,0.471-4.859c2.508,0.732,4.754,2.09,6.739,4.075
						c3.24,3.24,4.859,7.105,4.859,11.598C231.267,100.134,231.241,100.761,231.189,101.388z"/>
					<path fill-rule="evenodd" clip-rule="evenodd" fill="#573C21" d="M211.989,115.729c0.94,0.157,1.88,0.235,2.821,0.235
						c0.627,0,1.254-0.026,1.881-0.078v38.557c0,0.627-0.236,1.176-0.706,1.645c-0.47,0.471-1.019,0.706-1.645,0.706
						c-0.68,0-1.254-0.235-1.724-0.706c-0.418-0.47-0.627-1.019-0.627-1.645V115.729z"/>
				</g>
			</g>
			<g display="inline">
				<g>
					<path fill-rule="evenodd" clip-rule="evenodd" fill="#F56C4A" d="M244.904,111.576c1.515,0.47,2.873,1.306,4.074,2.508
						c1.986,1.985,2.979,4.362,2.979,7.131c0,0.366-0.027,0.758-0.079,1.176c-1.828,0-3.475-0.705-4.937-2.116
						c-1.567-1.514-2.351-3.396-2.351-5.642C244.59,113.326,244.695,112.308,244.904,111.576z"/>
					<path fill-rule="evenodd" clip-rule="evenodd" fill="#F35730" d="M244.904,111.576c-0.209,0.732-0.314,1.75-0.314,3.057
						c0,2.246,0.784,4.127,2.351,5.642c1.463,1.411,3.109,2.116,4.937,2.116c-0.209,2.142-1.071,4.023-2.586,5.643
						c-0.784,0.314-1.802,0.549-3.057,0.706c-2.037,0.156-3.657,0.026-4.858-0.392c-1.149-0.419-2.195-0.863-3.135-1.332
						c-0.941-0.471-1.698-1.175-2.273-2.116c-0.261-0.366-0.575-0.967-0.941-1.802c-0.47-0.941-0.705-1.672-0.705-2.194
						c0-1.62,0.522-2.691,1.567-3.214c0.627-0.366,1.776-0.732,3.448-1.097c2.247-0.68,3.788-2.43,4.624-5.251
						C244.276,111.393,244.59,111.471,244.904,111.576z"/>
					<path fill-rule="evenodd" clip-rule="evenodd" fill="#EB3A0E" d="M249.292,128.033c-0.105,0.105-0.209,0.183-0.314,0.235
						c-1.671,1.724-3.657,2.691-5.956,2.9c-0.366,0.052-0.732,0.078-1.097,0.078c-0.627,0-1.228-0.026-1.802-0.078
						c-1.985-0.314-3.787-1.28-5.407-2.9c-1.933-1.933-2.9-4.284-2.9-7.053c0-2.769,0.967-5.146,2.9-7.131
						c1.985-1.933,4.388-2.9,7.209-2.9c0.68,0,1.358,0.052,2.038,0.157c-0.836,2.821-2.377,4.571-4.624,5.251
						c-1.671,0.365-2.821,0.731-3.448,1.097c-1.045,0.523-1.567,1.593-1.567,3.214c0,0.522,0.235,1.254,0.705,2.194
						c0.366,0.836,0.68,1.437,0.941,1.802c0.575,0.941,1.332,1.645,2.273,2.116c0.94,0.47,1.985,0.914,3.135,1.332
						c1.202,0.418,2.821,0.548,4.858,0.392C247.49,128.582,248.508,128.347,249.292,128.033z"/>
					<path fill-rule="evenodd" clip-rule="evenodd" fill="#573C21" d="M243.022,131.168v23.667c0,0.418-0.157,0.758-0.47,1.019
						c-0.262,0.261-0.575,0.392-0.941,0.392c-0.418,0-0.758-0.131-1.019-0.392c-0.314-0.261-0.471-0.601-0.471-1.019v-23.667
						c0.575,0.052,1.176,0.078,1.802,0.078C242.291,131.246,242.657,131.22,243.022,131.168z"/>
				</g>
			</g>
			<g display="inline">
				<g>
					<path fill-rule="evenodd" clip-rule="evenodd" fill="#1B6F81" d="M114.5,163.141c0-2.664,0.941-4.963,2.821-6.896
						c1.933-1.881,4.206-2.821,6.818-2.821h153.13c2.612,0,4.859,0.94,6.739,2.821c1.933,1.933,2.9,4.232,2.9,6.896H114.5z"/>
					<path fill-rule="evenodd" clip-rule="evenodd" fill="#124C58" d="M114.5,163.141h172.408c0,2.665-0.967,4.911-2.9,6.74
						c-1.88,1.932-4.127,2.899-6.739,2.899h-39.654c0.105,3.396,0.027,5.982-0.235,7.759c-0.104,0.523-0.183,1.019-0.235,1.489
						c-0.784,3.082-2.586,4.231-5.408,3.448c-0.993-0.679-1.54-1.828-1.645-3.448c-0.157-0.784-0.157-1.646,0-2.587
						c0.314-3.082,0.549-5.25,0.706-6.504h-19.122c-0.523,8.359-0.81,12.774-0.862,13.244c-0.889,4.597-3.135,6.896-6.74,6.896
						c-3.239,0-5.198-1.462-5.878-4.388c-0.052-0.523-0.34-5.826-0.862-15.909h-41.614c0.471,3.762,0.288,9.091-0.548,15.987
						c-1.202,8.673-2.979,13.009-5.33,13.009c-3.814,0-6.295-3.5-7.445-10.501c-1.462-8.934-3.422-15.099-5.878-18.495h-12.382
						c-2.612,0-4.885-0.967-6.818-2.899C115.441,168.052,114.5,165.806,114.5,163.141z"/>
				</g>
			</g>
		</g>
	</g>
</g>
<g id="Слой_6" display="none">
	
		<rect x="0.012" y="0.017" display="inline" fill-rule="evenodd" clip-rule="evenodd" fill="#B2D0D0" width="1024" height="511.998"/>
	<g display="inline">
		<g>
			<path fill-rule="evenodd" clip-rule="evenodd" fill="#FFFFFF" d="M612.5,140.3c2.833-2.867,4.25-6.316,4.25-10.35
				c0-4.034-1.417-7.467-4.25-10.3c-2.866-2.867-6.333-4.3-10.4-4.3c-4.033,0-7.466,1.433-10.3,4.3c-2.866,2.833-4.3,6.267-4.3,10.3
				c0,4.033,1.434,7.483,4.3,10.35c2.834,2.867,6.267,4.3,10.3,4.3C606.134,144.6,609.6,143.167,612.5,140.3z M616.05,116.1
				c3.8,3.8,5.7,8.417,5.7,13.85c0,5.433-1.9,10.066-5.7,13.9c-3.866,3.833-8.517,5.75-13.95,5.75c-5.433,0-10.05-1.934-13.85-5.8
				v0.05c-3.833-3.833-5.75-8.467-5.75-13.9c0-5.434,1.917-10.05,5.75-13.85c3.8-3.833,8.417-5.75,13.85-5.75
				c5.4,0,10.034,1.917,13.9,5.75H616.05z"/>
			<path fill-rule="evenodd" clip-rule="evenodd" fill="#F9D21B" d="M612.5,140.3c-2.9,2.867-6.366,4.3-10.4,4.3
				c-4.033,0-7.466-1.434-10.3-4.3c-2.866-2.867-4.3-6.316-4.3-10.35c0-4.034,1.434-7.467,4.3-10.3c2.834-2.867,6.267-4.3,10.3-4.3
				c4.067,0,7.534,1.433,10.4,4.3c2.833,2.833,4.25,6.267,4.25,10.3C616.75,133.983,615.333,137.433,612.5,140.3z"/>
		</g>
	</g>
</g>
<g id="Layer_5" display="none">
	<g display="inline">
		<g>
			<g>
				<path fill-rule="evenodd" clip-rule="evenodd" fill="#B3D6FF" d="M736,371.95l19.1,25.5l-12-9.4l2.45,11.25L736,385.95v-0.05
					V371.95z M940.7,397.4v-0.051v-13.1L956,397.2l4.75,12.399l-12.95-10.1l2.45,11.2L940.7,397.4z M835.1,400.85l1.101-1.6
					L853.6,418.7l-11.1-5.7l-0.25,14.55l-4.5-14.85l-2.65,3.75V400.85z M655.2,435.05v-13.5l0.399-0.899l8.801,9.6l-4.5-4.35
					l4.85,9.6l-7.3-6.55L655.2,435.05z M573.25,420.85V415l1.1-0.7l19.051,12.05l-14.5-5.949l-0.25,14.55L573.25,420.85z"/>
				<path fill-rule="evenodd" clip-rule="evenodd" fill="#59635B" d="M736,385.9v0.05v68.6h-49.35l-0.051-0.05l37.5-62.6
					l8.101-4.551l-3.75,13.25L736,385.9z M923.7,406.15l13.2-7.4l-3.75,13.3l7.55-14.7v0.051v57.149h-54.75L923.7,406.15z
					 M835.1,416.45v38.1h-37l25.4-36.85l9.3-3.15l-3.25,9.851L835.1,416.45z M648.8,434.75l-0.2,1.25l5.25-7.65l0.551,8.7l0.8-2
					v19.5h-16L648.8,434.75z M573.25,454.55h-62.5l48.15-30.45l7.899-2.1l-4.05,9.8L573,420.1l0.25,0.75V454.55z"/>
				<path fill-rule="evenodd" clip-rule="evenodd" fill="#E7FFFF" d="M923.7,406.15l17-21.9v13.1l-7.55,14.7l3.75-13.3L923.7,406.15
					z M736,385.9l-7.55,14.699l3.75-13.25L724.1,391.9l11.9-19.95V385.9z M835.1,416.45l-5.55,7.95l3.25-9.851l-9.3,3.15
					l11.6-16.851V416.45z M655.2,421.55v13.5l-0.8,2l-0.551-8.7L648.6,436l0.2-1.25L655.2,421.55z M573.25,420.85L573,420.1
					l-10.25,11.7l4.05-9.8l-7.899,2.1l14.35-9.1V420.85z"/>
				<path fill-rule="evenodd" clip-rule="evenodd" fill="#364240" d="M736,454.55v-68.6l9.55,13.35l-2.45-11.25l12,9.4l42.75,57.1
					H736z M956,397.2l68,57.35h-83.3V397.4l9.55,13.3l-2.45-11.2l12.95,10.1L956,397.2z M835.1,454.55v-38.1l2.65-3.75l4.5,14.85
					L842.5,413l11.1,5.7l32.101,35.85H835.1z M655.2,454.55v-19.5l2.25-6.1l7.3,6.55l-4.85-9.6l4.5,4.35L686.6,454.5l-0.05,0.05
					H655.2z M593.4,426.35l44.55,28.2h-64.7v-33.7l5.4,14.101l0.25-14.55L593.4,426.35z"/>
			</g>
		</g>
		<g>
			<g>
				<path fill-rule="evenodd" clip-rule="evenodd" fill="#B3D6FF" d="M244.3,396.4l-11.95-9.4l2.45,11.25l-9.55-13.35V384.8V370.9
					L244.3,396.4z M153.65,429.2l-4.5-4.351l4.85,9.601l-7.3-6.55l-2.3,6.1v-13.5l0.45-0.9L153.65,429.2z M342.8,417.65l-11.05-5.7
					l-0.25,14.55l-4.5-14.85l-2.65,3.75V399.8l1.05-1.6L342.8,417.65z M62.5,413.95l1.1-0.7l19,12.05l-14.45-5.95L67.9,433.9
					L62.5,419.8V413.95z M429.95,396.35v-0.05v-13.1l15.3,12.95L450,408.55l-13-10.1l2.45,11.2L429.95,396.35z"/>
				<path fill-rule="evenodd" clip-rule="evenodd" fill="#59635B" d="M225.25,384.9v68.6H175.9l-0.1-0.05l37.5-62.601l8.15-4.55
					l-3.75,13.25l7.55-14.75V384.9z M144.4,434v19.5h-16l9.65-19.8l-0.25,1.25l5.3-7.65l0.55,8.7L144.4,434z M324.35,415.4v38.1
					H287.3l25.45-36.85l9.3-3.15l-3.25,9.85L324.35,415.4z M62.5,453.5H0l48.15-30.45l7.9-2.1l-4.05,9.8l10.25-11.7l0.25,0.75V453.5
					z M429.95,453.5H375.2l37.75-48.4l13.2-7.399l-3.8,13.3l7.6-14.7v0.05V453.5z"/>
				<path fill-rule="evenodd" clip-rule="evenodd" fill="#E7FFFF" d="M225.25,370.9V384.8l-7.55,14.75l3.75-13.25l-8.15,4.55
					L225.25,370.9z M144.4,420.5V434l-0.75,2l-0.55-8.7l-5.3,7.65l0.25-1.25L144.4,420.5z M312.75,416.65l11.6-16.851V415.4
					l-5.55,7.949l3.25-9.85L312.75,416.65z M48.15,423.05l14.35-9.1v5.85l-0.25-0.75L52,430.75l4.05-9.8L48.15,423.05z
					 M412.95,405.1l17-21.899v13.1l-7.6,14.7l3.8-13.3L412.95,405.1z"/>
				<path fill-rule="evenodd" clip-rule="evenodd" fill="#364240" d="M225.25,453.5v-68.6l9.55,13.35L232.35,387l11.95,9.4
					l42.7,57.1H225.25z M144.4,453.5V434l2.3-6.1l7.3,6.55l-4.85-9.601l4.5,4.351l22.15,24.25v0.05H144.4z M62.5,453.5v-33.7
					l5.4,14.101l0.25-14.551l14.45,5.95l44.55,28.2H62.5z M445.25,396.15l67.95,57.35h-83.25v-57.15l9.5,13.301l-2.45-11.2l13,10.1
					L445.25,396.15z M324.35,453.5v-38.1l2.65-3.75l4.5,14.85l0.25-14.55l11.05,5.7l32.15,35.85H324.35z"/>
			</g>
		</g>
	</g>
</g>
<g id="Layer_4" display="none">
	<g display="inline">
		<g>
			<g>
				<g>
					<path fill-rule="evenodd" clip-rule="evenodd" fill="#0C3139" d="M818.2,422.3l2.95-18.85l13.6-13.55l3.3,23.699
						c-1.066,0.5-2.233,1.034-3.5,1.601C827.283,418.566,821.833,420.934,818.2,422.3z M816.5,432.65
						c5.2,1.233,5.884,1.699,2.05,1.399c-0.8-0.133-1.533-0.233-2.2-0.3L816.5,432.65z M816.3,434.2
						c5.601,1.666,9.834,2.934,12.7,3.8c2.866,0.9,7.15,1.917,12.85,3.05l0.601,4.05c-2.434-0.233-5.05-0.466-7.851-0.699
						c-8.699-0.733-15.25-1.367-19.649-1.9L816.3,434.2z M840,427.75c-5.134,0.9-8.5,1.366-10.1,1.4
						c-3.134,0.066-7.301,0.433-12.5,1.1c-0.167,0-0.351,0.033-0.551,0.1l0.7-4.399c7.8-0.233,15.167-0.5,22.101-0.8L840,427.75z
						 M844.1,457.6c-6.333-0.966-12.283-1.883-17.85-2.75c-5.467-0.899-9.75-1.649-12.85-2.25l1-6.6c4,2,8.267,3.467,12.8,4.4
						c7.133,0.933,12.583,1.949,16.35,3.05L844.1,457.6z M811,467.6l2-12.8c1.767,0.667,3.917,1.267,6.45,1.8l16.3,6.75
						C828.816,464.517,820.566,465.934,811,467.6z"/>
					<path fill-rule="evenodd" clip-rule="evenodd" fill="#124B58" d="M838.05,413.6l1.601,11.551
						c-6.934,0.3-14.301,0.566-22.101,0.8l0.65-3.65c3.633-1.366,9.083-3.733,16.35-7.1C835.816,414.634,836.983,414.1,838.05,413.6
						z M816.85,430.35c0.2-0.066,0.384-0.1,0.551-0.1c5.199-0.667,9.366-1.033,12.5-1.1c1.6-0.034,4.966-0.5,10.1-1.4l1.85,13.3
						c-5.699-1.133-9.983-2.149-12.85-3.05c-2.866-0.866-7.1-2.134-12.7-3.8l0.05-0.45c0.667,0.066,1.4,0.167,2.2,0.3
						c3.834,0.3,3.15-0.166-2.05-1.399L816.85,430.35z M842.45,445.1l1.1,8.351c-3.767-1.101-9.217-2.117-16.35-3.05
						c-4.533-0.934-8.8-2.4-12.8-4.4l0.55-3.5c4.399,0.533,10.95,1.167,19.649,1.9C837.4,444.634,840.017,444.866,842.45,445.1z
						 M844.1,457.6l2,14.101l-35.75,0.1l0.65-4.2c9.566-1.666,17.816-3.083,24.75-4.25l-16.3-6.75
						c-2.533-0.533-4.684-1.133-6.45-1.8l0.4-2.2c3.1,0.601,7.383,1.351,12.85,2.25C831.816,455.717,837.767,456.634,844.1,457.6z"
						/>
				</g>
			</g>
			<g>
				<g>
					<path fill-rule="evenodd" clip-rule="evenodd" fill="#0DC6C1" d="M805.65,377.2c-0.634-0.9-0.95-1.917-0.95-3.05
						c0-2.467,1.25-4.4,3.75-5.801c1.967-1.066,4.083-1.6,6.35-1.6s4.033,1.3,5.3,3.9c0.267,0.5,0.5,0.983,0.7,1.449
						c0-1.633,0.517-3.066,1.55-4.3c1.5-1.833,3.584-2.75,6.25-2.75c1.434,0,2.4,0.834,2.9,2.5c0.267,0.867,0.4,1.834,0.4,2.9
						c0,0.566,0,1.05,0,1.45c0.1-0.134,0.199-0.25,0.3-0.351c1.333-1.566,2.75-2.35,4.25-2.35c1.033,0,1.85,0.416,2.45,1.25
						c0.566,0.7,0.85,1.517,0.85,2.45c0,0.933-0.434,1.699-1.3,2.3c1.267-0.533,2.7-1.167,4.3-1.9c2.167-0.833,4.316-1.25,6.45-1.25
						c2.633,0,4.416,0.566,5.35,1.7c0.834,0.934,1.25,2.65,1.25,5.15c0,2.333-1.233,4.149-3.7,5.449
						c-0.133,0.067-0.267,0.134-0.399,0.2c0,0.066,0,0.167,0,0.3c0,0.867-0.233,1.717-0.7,2.551v0.05
						c0.267-0.2,0.55-0.417,0.85-0.65c1.434-0.967,2.467-1.6,3.101-1.899c1.666-0.767,3.05-0.767,4.149,0
						c0.334,0.199,0.684,0.767,1.051,1.699c0.333,0.9,0.316,1.917-0.051,3.051c-0.366,1.166-1.316,2.449-2.85,3.85
						c0.3-0.1,0.583-0.15,0.85-0.15c-0.566,0.2-0.966,0.334-1.199,0.4c0.066-0.2,0.199-0.517,0.399-0.95
						c0.2-0.434,0.3-0.866,0.3-1.3c0-1.134-0.116-2.017-0.35-2.65c-0.366-1-1.05-1.5-2.05-1.5c-0.566,0-1.283,0.25-2.15,0.75
						c-1.033,0.634-1.85,1.4-2.45,2.301v-0.2c0.367-0.601,0.217-1.601-0.449-3c-0.634-1.4-1.267-2.15-1.9-2.25
						c0.1,0,0.15-0.066,0.15-0.2c0.733-0.9,1.433-1.684,2.1-2.35c0.3-0.4,0.45-1.134,0.45-2.2c0-1.4-0.617-2.7-1.851-3.9
						c-1.399-1.399-3.1-2.1-5.1-2.1c-1.233,0-2.417,0.267-3.55,0.8c-0.934,0.434-1.75,1.017-2.45,1.75c0.134-0.5,0.2-0.95,0.2-1.35
						c0-1.067-0.233-1.917-0.7-2.551c-0.5-0.666-1.233-1-2.2-1c-0.633,0-1.1,0.101-1.399,0.301c-0.834,0.566-1.5,0.966-2,1.199
						c-0.134-0.933-0.567-1.816-1.301-2.649c-0.8-0.934-1.633-1.4-2.5-1.4c-1.166,0-2.233,0.517-3.199,1.55
						c-1.167,1.233-1.567,2.817-1.2,4.75c-0.367-0.966-1.417-2.149-3.15-3.55c-1.967-1.633-3.684-2.45-5.149-2.45
						c-2.733,0-5.017,0.634-6.851,1.9c-1.934,1.333-2.899,3.083-2.899,5.25C805.65,376.917,805.65,377.066,805.65,377.2z
						 M805.7,377.9c0,0.133,0.017,0.25,0.05,0.35c0.066,0.4,0.267,0.866,0.6,1.4v1.05c-0.333-0.233-0.899-0.15-1.699,0.25
						c-0.9,0.434-1.351,1.066-1.351,1.899c0,0.301,0.184,0.733,0.55,1.301c0.467,0.733,0.784,1.399,0.95,2
						c-1.066,0.399-1.816,0.683-2.25,0.85c-0.767,0.3-1.149,0.7-1.149,1.2c0,0.566,0.25,1.116,0.75,1.649
						c1,1.101,1.6,1.784,1.8,2.051c-1.2,0.199-2.55,0.316-4.05,0.35c0.533-0.233,1.116-0.434,1.75-0.6
						c-1.167-0.367-2.067-1.051-2.7-2.051c-0.566-1.566-0.851-2.383-0.851-2.449c0-0.801,0.7-1.417,2.101-1.851
						c0.934-0.267,1.883-0.399,2.85-0.399h0.05c-0.333-0.301-0.583-0.551-0.75-0.75c-0.633-0.867-0.949-1.917-0.949-3.15
						c0-0.866,0.55-1.634,1.649-2.3c0.967-0.533,1.8-0.8,2.5-0.8C805.583,377.9,805.634,377.9,805.7,377.9z"/>
					<path fill-rule="evenodd" clip-rule="evenodd" fill="#0AA3A0" d="M799.9,392.25c1.5-0.033,2.85-0.15,4.05-0.35
						c-0.2-0.267-0.8-0.95-1.8-2.051c-0.5-0.533-0.75-1.083-0.75-1.649c0-0.5,0.383-0.9,1.149-1.2c0.434-0.167,1.184-0.45,2.25-0.85
						c-0.166-0.601-0.483-1.267-0.95-2c-0.366-0.567-0.55-1-0.55-1.301c0-0.833,0.45-1.466,1.351-1.899
						c0.8-0.4,1.366-0.483,1.699-0.25v-1.05c-0.333-0.534-0.533-1-0.6-1.4c-0.033-0.1-0.05-0.217-0.05-0.35
						c0.2,0,0.383,0.017,0.55,0.05c-0.2-0.233-0.4-0.483-0.6-0.75c0-0.134,0-0.283,0-0.45c0-2.167,0.966-3.917,2.899-5.25
						c1.834-1.267,4.117-1.9,6.851-1.9c1.466,0,3.183,0.817,5.149,2.45c1.733,1.4,2.783,2.584,3.15,3.55
						c-0.367-1.933,0.033-3.517,1.2-4.75c0.966-1.033,2.033-1.55,3.199-1.55c0.867,0,1.7,0.467,2.5,1.4
						c0.733,0.833,1.167,1.717,1.301,2.649c0.5-0.233,1.166-0.633,2-1.199c0.3-0.2,0.767-0.301,1.399-0.301c0.967,0,1.7,0.334,2.2,1
						c0.467,0.634,0.7,1.483,0.7,2.551c0,0.399-0.066,0.85-0.2,1.35c0.7-0.733,1.517-1.316,2.45-1.75
						c1.133-0.533,2.316-0.8,3.55-0.8c2,0,3.7,0.7,5.1,2.1c1.233,1.2,1.851,2.5,1.851,3.9c0,1.066-0.15,1.8-0.45,2.2
						c-0.667,0.666-1.366,1.449-2.1,2.35c0,0.134-0.051,0.2-0.15,0.2c0.634,0.1,1.267,0.85,1.9,2.25
						c0.666,1.399,0.816,2.399,0.449,3v0.2c0.601-0.9,1.417-1.667,2.45-2.301c0.867-0.5,1.584-0.75,2.15-0.75
						c1,0,1.684,0.5,2.05,1.5c0.233,0.634,0.35,1.517,0.35,2.65c0,0.434-0.1,0.866-0.3,1.3c-0.2,0.434-0.333,0.75-0.399,0.95
						c0.233-0.066,0.633-0.2,1.199-0.4l0.051-0.05c0.033,0,0.066,0,0.1,0c0.866-0.133,1.767-0.05,2.7,0.25
						c1.066,0,2.1,0.533,3.1,1.601v0.05c0,0.333,0,0.666,0,1c0,1.133-0.1,1.833-0.3,2.1c-0.134,0.167-0.434,0.184-0.9,0.05
						c-1.433-0.433-2.733-0.066-3.899,1.101c0.399,0.233,0.916,0.45,1.55,0.649c-0.031,0.031-0.081,0.048-0.15,0.051
						c0.105,0,0.204,0,0.301,0c0.3,0.066,0.633,0.149,1,0.25c0.933,0.366,1.399,1.066,1.399,2.1c0,0.566-0.116,0.8-0.35,0.7h-3.05
						l-3.101-3.05c-0.233,0.699-0.366,1.683-0.399,2.949c-0.2,0.967-0.801,1.45-1.801,1.45c-1.933,0-3.616-0.5-5.05-1.5
						c-1.5-1-2.366-2.316-2.6-3.95c0,0.233-0.117,0.351-0.351,0.351c0.167,0.633-0.133,1.55-0.899,2.75
						c-0.867,1.333-1.816,2-2.851,2c-0.933,0-1.966-0.851-3.1-2.55c-1.033-1.5-1.583-2.684-1.65-3.551
						c-0.666,1.367-1.8,2.784-3.399,4.25c-1.601,1.467-2.8,2.2-3.601,2.2c-2,0-3.833-0.684-5.5-2.05c-2.199-1.767-4.05-2.9-5.55-3.4
						c1.066,2.134,0.684,4.65-1.149,7.551c-0.134,0.833-0.517,1.433-1.15,1.8c-0.7,0.366-1.917,0.55-3.65,0.55
						c-2.6,0-4.5-0.767-5.699-2.3c-1.301-1.634-1.617-3.934-0.95-6.9c-7.434,4.334-11.316,4.101-11.65-0.7
						c-0.133-1.233-0.233-2.35-0.3-3.35c0.7-1,1.583-1.85,2.65-2.55C798.5,392.833,799.167,392.517,799.9,392.25z"/>
					<path fill-rule="evenodd" clip-rule="evenodd" fill="#098885" d="M860.65,400.15c2.267,0.066,3.416,0.1,3.449,0.1
						c1.467,0.2,2.4,0.85,2.801,1.95c0.566,0.666,0.566,1.35,0,2.05c-0.534,0.3-1.684,0.45-3.45,0.45
						c-1.134,0-2.334-0.167-3.601-0.5c-0.566-0.167-1.1-0.351-1.6-0.55c-0.033,0.3-0.434,1.05-1.2,2.25
						c-1.733,1-3.649,1.416-5.75,1.25c-2.166-0.967-3.467-1.851-3.899-2.65c-0.067-0.066-0.101-0.15-0.101-0.25
						c-0.133,0.467-0.283,1.017-0.45,1.65c-0.5,1.1-1.35,1.649-2.55,1.649c-1.434,0-2.85-0.483-4.25-1.45
						c-1.434-1-2.217-2.033-2.35-3.1h-0.45c-0.267,1.967-0.767,3.283-1.5,3.95c-0.733,0.666-2.017,1-3.85,1
						c-2.034,0-4.084-0.816-6.15-2.45c-1.767-1.767-2.733-2.733-2.9-2.9c-0.133,6.334-2.75,9.5-7.85,9.5
						c-1.167,0-2.533-0.416-4.1-1.25c-1.634-0.833-2.45-1.666-2.45-2.5c0-0.133,0.033-0.316,0.1-0.55
						c-0.1,0.101-0.2,0.217-0.3,0.351c-1.634,1.8-4.116,2.699-7.45,2.699c-2.899,0-4.899-0.8-6-2.399c-0.8-1.3-1.2-3.517-1.2-6.65
						c0-2.434,0.551-4.45,1.65-6.05c0.066,1,0.167,2.116,0.3,3.35c0.334,4.801,4.217,5.034,11.65,0.7
						c-0.667,2.967-0.351,5.267,0.95,6.9c1.199,1.533,3.1,2.3,5.699,2.3c1.733,0,2.95-0.184,3.65-0.55
						c0.634-0.367,1.017-0.967,1.15-1.8c1.833-2.9,2.216-5.417,1.149-7.551c1.5,0.5,3.351,1.634,5.55,3.4
						c1.667,1.366,3.5,2.05,5.5,2.05c0.801,0,2-0.733,3.601-2.2c1.6-1.466,2.733-2.883,3.399-4.25
						c0.067,0.867,0.617,2.051,1.65,3.551c1.134,1.699,2.167,2.55,3.1,2.55c1.034,0,1.983-0.667,2.851-2
						c0.767-1.2,1.066-2.117,0.899-2.75c0.233,0,0.351-0.117,0.351-0.351c0.233,1.634,1.1,2.95,2.6,3.95c1.434,1,3.117,1.5,5.05,1.5
						c1,0,1.601-0.483,1.801-1.45c0.033-1.267,0.166-2.25,0.399-2.949l3.101,3.05h3.05c0.233,0.1,0.35-0.134,0.35-0.7
						c0-1.033-0.467-1.733-1.399-2.1C861.283,400.3,860.95,400.217,860.65,400.15z M860.5,400.1c-0.634-0.199-1.15-0.416-1.55-0.649
						c1.166-1.167,2.467-1.533,3.899-1.101c0.467,0.134,0.767,0.117,0.9-0.05c0.2-0.267,0.3-0.967,0.3-2.1c0-0.334,0-0.667,0-1
						c0.834,0.899,1.25,1.583,1.25,2.05c0,0.967-0.566,1.684-1.7,2.15C863.134,399.6,862.1,399.833,860.5,400.1z"/>
				</g>
			</g>
		</g>
		<g>
			<g>
				<g>
					<path fill-rule="evenodd" clip-rule="evenodd" fill="#3DA2BE" d="M734.15,458.85c0.233-0.133,0.449-0.3,0.649-0.5
						c1.101-1,1.65-2.216,1.65-3.649s-0.55-2.667-1.65-3.7c-1.033-0.967-2.267-1.467-3.7-1.5c-0.066,0-0.149,0-0.25,0
						c-0.533,0-1.05,0.066-1.55,0.2c0.334-0.634,0.5-1.334,0.5-2.101c0-1.3-0.5-2.399-1.5-3.3c-0.967-0.934-2.149-1.399-3.55-1.399
						c-0.7,0-1.35,0.116-1.95,0.35c-0.166-0.733-0.55-1.384-1.149-1.95c-0.867-0.8-1.9-1.2-3.101-1.2c-1.233,0-2.283,0.4-3.149,1.2
						c-0.634,0.601-1.034,1.3-1.2,2.101c-0.634-0.467-1.367-0.7-2.2-0.7c-0.634,0-1.217,0.133-1.75,0.399
						c-0.033-1.3-0.55-2.399-1.55-3.3c-1.066-0.967-2.334-1.45-3.8-1.45c-1.467,0-2.733,0.483-3.801,1.45
						c-0.933,0.867-1.449,1.9-1.55,3.101c-0.8-0.4-1.7-0.601-2.7-0.601c-1.633,0-3.033,0.533-4.199,1.601
						c-0.801,0.767-1.317,1.633-1.551,2.6c-0.699-0.533-1.533-0.8-2.5-0.8c-1.133,0-2.1,0.366-2.899,1.1
						c-0.767,0.733-1.167,1.617-1.2,2.65c-0.366,0.166-0.7,0.399-1,0.7c-0.566,0.533-0.917,1.149-1.05,1.85
						c-0.334-0.066-0.684-0.1-1.05-0.1c-1.4,0-2.584,0.449-3.551,1.35c-1,0.934-1.5,2.05-1.5,3.35c0,0.834,0.217,1.584,0.65,2.25
						h-1.1c-0.434-0.767-0.65-1.616-0.65-2.55c0-1.434,0.517-2.666,1.55-3.7c1-1.033,2.233-1.55,3.7-1.55
						c0.366,0,0.733,0.033,1.1,0.101c0.134-0.767,0.483-1.45,1.051-2.051c0.333-0.3,0.699-0.55,1.1-0.75c0-1.166,0.4-2.166,1.2-3
						c0.866-0.833,1.883-1.25,3.05-1.25c1,0,1.866,0.301,2.6,0.9c0.267-1.066,0.817-2.033,1.65-2.9c1.2-1.166,2.65-1.75,4.35-1.75
						c1,0,1.934,0.217,2.801,0.65c0.1-1.366,0.633-2.533,1.6-3.5c1.1-1.1,2.417-1.65,3.95-1.65s2.85,0.551,3.95,1.65
						c1.033,1.033,1.583,2.283,1.649,3.75c0.533-0.3,1.134-0.45,1.8-0.45c0.867,0,1.634,0.25,2.301,0.75
						c0.166-0.866,0.583-1.633,1.25-2.3c0.899-0.9,1.983-1.35,3.25-1.35s2.35,0.449,3.25,1.35c0.633,0.6,1.033,1.316,1.199,2.15
						c0.601-0.267,1.267-0.4,2-0.4c1.467,0,2.7,0.517,3.7,1.55c1.033,1.033,1.55,2.267,1.55,3.7c0,0.866-0.183,1.65-0.55,2.35
						c0.533-0.133,1.084-0.199,1.65-0.199c1.3,0,2.45,0.366,3.45,1.1c0.233,0.167,0.449,0.366,0.649,0.6
						c0.566,0.534,1,1.134,1.3,1.801c0.301,0.699,0.45,1.466,0.45,2.3c0,0.8-0.149,1.55-0.45,2.25c-0.3,0.666-0.733,1.283-1.3,1.85
						c-0.2,0.2-0.416,0.384-0.649,0.55H734.15z"/>
					<path fill-rule="evenodd" clip-rule="evenodd" fill="#2E7C92" d="M677,458.85c-0.434-0.666-0.65-1.416-0.65-2.25
						c0-1.3,0.5-2.416,1.5-3.35c0.967-0.9,2.15-1.35,3.551-1.35c0.366,0,0.716,0.033,1.05,0.1c0.133-0.7,0.483-1.316,1.05-1.85
						c0.3-0.301,0.634-0.534,1-0.7c0.033-1.033,0.434-1.917,1.2-2.65c0.8-0.733,1.767-1.1,2.899-1.1c0.967,0,1.801,0.267,2.5,0.8
						c0.233-0.967,0.75-1.833,1.551-2.6c1.166-1.067,2.566-1.601,4.199-1.601c1,0,1.9,0.2,2.7,0.601
						c0.101-1.2,0.617-2.233,1.55-3.101c1.067-0.967,2.334-1.45,3.801-1.45c1.466,0,2.733,0.483,3.8,1.45c1,0.9,1.517,2,1.55,3.3
						c0.533-0.267,1.116-0.399,1.75-0.399c0.833,0,1.566,0.233,2.2,0.7c0.166-0.801,0.566-1.5,1.2-2.101
						c0.866-0.8,1.916-1.2,3.149-1.2c1.2,0,2.233,0.4,3.101,1.2c0.6,0.566,0.983,1.217,1.149,1.95c0.601-0.233,1.25-0.35,1.95-0.35
						c1.4,0,2.583,0.466,3.55,1.399c1,0.9,1.5,2,1.5,3.3c0,0.767-0.166,1.467-0.5,2.101c0.5-0.134,1.017-0.2,1.55-0.2
						c0.101,0,0.184,0,0.25,0c1.434,0.033,2.667,0.533,3.7,1.5c1.101,1.033,1.65,2.267,1.65,3.7s-0.55,2.649-1.65,3.649
						c-0.2,0.2-0.416,0.367-0.649,0.5H677z"/>
				</g>
			</g>
			<g>
				<g>
					<path fill-rule="evenodd" clip-rule="evenodd" fill="#3DA2BE" d="M154.35,458.85c0.267-0.199,0.533-0.416,0.8-0.649
						c1.367-1.267,2.05-2.8,2.05-4.601c0-1.8-0.684-3.35-2.05-4.649c-1.3-1.2-2.867-1.816-4.7-1.851
						c-0.067-0.033-0.15-0.05-0.25-0.05c-0.7,0-1.367,0.084-2,0.25c0.433-0.8,0.65-1.666,0.65-2.6c0-1.634-0.633-3.033-1.9-4.2
						c-1.233-1.134-2.717-1.7-4.45-1.7c-0.867,0-1.683,0.134-2.45,0.4c-0.2-0.9-0.683-1.7-1.45-2.4c-1.1-1-2.4-1.5-3.9-1.5
						c-1.534,0-2.85,0.5-3.95,1.5c-0.8,0.733-1.3,1.601-1.5,2.601c-0.8-0.567-1.733-0.851-2.8-0.851c-0.8,0-1.517,0.167-2.15,0.5
						c-0.066-1.633-0.733-3.033-2-4.2c-1.3-1.199-2.883-1.8-4.75-1.8s-3.466,0.601-4.8,1.8c-1.167,1.101-1.8,2.4-1.9,3.9
						c-1.033-0.5-2.167-0.75-3.4-0.75c-2.067,0-3.833,0.684-5.3,2.05c-1,0.934-1.65,2.017-1.95,3.25c-0.9-0.666-1.95-1-3.15-1
						c-1.433,0-2.65,0.467-3.65,1.4c-1,0.899-1.5,2-1.5,3.3c-0.467,0.233-0.883,0.533-1.25,0.9c-0.733,0.666-1.183,1.433-1.35,2.3
						c-0.433-0.066-0.867-0.101-1.3-0.101c-1.767,0-3.267,0.567-4.5,1.7c-1.233,1.134-1.85,2.533-1.85,4.2
						c0,1.033,0.267,1.983,0.8,2.85H81.1c-0.567-0.966-0.85-2.05-0.85-3.25c0-1.8,0.65-3.35,1.95-4.649
						c1.267-1.267,2.816-1.9,4.65-1.9c0.467,0,0.917,0.033,1.35,0.101c0.2-0.967,0.666-1.834,1.4-2.601
						c0.4-0.399,0.85-0.717,1.35-0.95c0-1.433,0.517-2.683,1.55-3.75c1.033-1.033,2.283-1.55,3.75-1.55
						c1.267,0,2.367,0.384,3.3,1.15c0.334-1.367,1.017-2.584,2.05-3.65c1.533-1.5,3.367-2.25,5.5-2.25c1.267,0,2.433,0.267,3.5,0.8
						c0.133-1.666,0.816-3.116,2.05-4.35c1.367-1.366,3.017-2.05,4.95-2.05c1.933,0,3.583,0.684,4.95,2.05c1.3,1.3,2,2.85,2.1,4.65
						c0.667-0.367,1.4-0.551,2.2-0.551c1.133,0,2.117,0.334,2.95,1c0.2-1.1,0.717-2.083,1.55-2.949c1.133-1.134,2.5-1.7,4.1-1.7
						c1.566,0,2.917,0.566,4.05,1.7c0.8,0.8,1.317,1.699,1.55,2.699c0.767-0.3,1.617-0.449,2.55-0.449c1.8,0,3.35,0.633,4.65,1.899
						c1.267,1.3,1.9,2.867,1.9,4.7c0,1.066-0.217,2.05-0.65,2.95c0.666-0.2,1.367-0.3,2.1-0.3c1.6,0,3.033,0.466,4.3,1.399
						c0.267,0.233,0.55,0.483,0.85,0.75c0.7,0.7,1.217,1.467,1.55,2.3c0.4,0.867,0.6,1.817,0.6,2.851s-0.2,1.983-0.6,2.85
						c-0.333,0.834-0.85,1.601-1.55,2.3c-0.3,0.267-0.584,0.517-0.85,0.75H154.35z"/>
					<path fill-rule="evenodd" clip-rule="evenodd" fill="#2E7C92" d="M154.35,458.85h-71.9c-0.534-0.866-0.8-1.816-0.8-2.85
						c0-1.667,0.617-3.066,1.85-4.2c1.233-1.133,2.733-1.7,4.5-1.7c0.433,0,0.867,0.034,1.3,0.101c0.167-0.867,0.617-1.634,1.35-2.3
						c0.367-0.367,0.783-0.667,1.25-0.9c0-1.3,0.5-2.4,1.5-3.3c1-0.934,2.217-1.4,3.65-1.4c1.2,0,2.25,0.334,3.15,1
						c0.3-1.233,0.95-2.316,1.95-3.25c1.467-1.366,3.233-2.05,5.3-2.05c1.233,0,2.367,0.25,3.4,0.75c0.1-1.5,0.733-2.8,1.9-3.9
						c1.333-1.199,2.933-1.8,4.8-1.8s3.45,0.601,4.75,1.8c1.267,1.167,1.934,2.567,2,4.2c0.633-0.333,1.35-0.5,2.15-0.5
						c1.066,0,2,0.283,2.8,0.851c0.2-1,0.7-1.867,1.5-2.601c1.1-1,2.417-1.5,3.95-1.5c1.5,0,2.8,0.5,3.9,1.5
						c0.767,0.7,1.25,1.5,1.45,2.4c0.767-0.267,1.584-0.4,2.45-0.4c1.733,0,3.217,0.566,4.45,1.7c1.267,1.167,1.9,2.566,1.9,4.2
						c0,0.934-0.217,1.8-0.65,2.6c0.633-0.166,1.3-0.25,2-0.25c0.1,0,0.183,0.017,0.25,0.05c1.833,0.034,3.4,0.65,4.7,1.851
						c1.367,1.3,2.05,2.85,2.05,4.649c0,1.801-0.684,3.334-2.05,4.601C154.883,458.434,154.617,458.65,154.35,458.85z"/>
				</g>
			</g>
			<g>
				<g>
					<path fill-rule="evenodd" clip-rule="evenodd" fill="#3DA2BE" d="M307.2,460.35c0.3-0.233,0.6-0.483,0.9-0.75
						c1.566-1.466,2.35-3.216,2.35-5.25c0-2.066-0.784-3.833-2.35-5.3c-1.467-1.366-3.233-2.083-5.3-2.149c-0.1,0-0.216,0-0.35,0
						c-0.8,0-1.55,0.1-2.25,0.3c0.5-0.934,0.75-1.934,0.75-3c0-1.867-0.717-3.45-2.15-4.75c-1.4-1.334-3.1-2-5.1-2
						c-1,0-1.917,0.166-2.75,0.5c-0.267-1.033-0.833-1.95-1.7-2.75c-1.233-1.167-2.717-1.75-4.45-1.75
						c-1.767,0-3.25,0.583-4.45,1.75c-0.934,0.866-1.517,1.866-1.75,3c-0.9-0.667-1.967-1-3.2-1c-0.9,0-1.717,0.184-2.45,0.55
						c-0.067-1.866-0.817-3.45-2.25-4.75c-1.5-1.4-3.317-2.1-5.45-2.1c-2.1,0-3.917,0.699-5.45,2.1
						c-1.333,1.233-2.066,2.717-2.2,4.45c-1.167-0.566-2.45-0.851-3.85-0.851c-2.334,0-4.334,0.767-6,2.301
						c-1.133,1.066-1.883,2.3-2.25,3.699c-1.033-0.767-2.233-1.149-3.6-1.149c-1.633,0-3.017,0.533-4.15,1.6s-1.7,2.334-1.7,3.8
						c-0.533,0.233-1.017,0.551-1.45,0.95c-0.8,0.8-1.3,1.684-1.5,2.65c-0.5-0.066-1-0.101-1.5-0.101c-2,0-3.717,0.65-5.15,1.95
						c-1.4,1.3-2.1,2.884-2.1,4.75c0,1.2,0.3,2.3,0.9,3.3h-1.55c-0.633-1.1-0.95-2.333-0.95-3.699c0-2.067,0.733-3.834,2.2-5.301
						c1.466-1.466,3.25-2.199,5.35-2.199c0.534,0,1.05,0.05,1.55,0.149c0.2-1.133,0.717-2.116,1.55-2.95
						c0.467-0.466,0.983-0.833,1.55-1.1c0-1.667,0.583-3.083,1.75-4.25c1.2-1.2,2.633-1.8,4.3-1.8c1.433,0,2.683,0.434,3.75,1.3
						c0.367-1.566,1.15-2.95,2.35-4.15c1.733-1.733,3.816-2.6,6.25-2.6c1.467,0,2.8,0.316,4,0.95c0.167-1.9,0.95-3.566,2.35-5
						c1.566-1.533,3.45-2.3,5.65-2.3c2.2,0,4.083,0.767,5.65,2.3c1.467,1.5,2.25,3.283,2.35,5.35
						c0.767-0.434,1.617-0.649,2.55-0.649c1.267,0,2.367,0.383,3.3,1.149c0.233-1.267,0.833-2.383,1.8-3.35
						c1.3-1.3,2.85-1.95,4.65-1.95c1.833,0,3.383,0.65,4.65,1.95c0.9,0.899,1.483,1.934,1.75,3.1c0.9-0.366,1.867-0.55,2.9-0.55
						c2.066,0,3.833,0.733,5.3,2.2s2.2,3.233,2.2,5.3c0,1.233-0.25,2.35-0.75,3.35c0.733-0.199,1.517-0.3,2.35-0.3
						c1.867,0,3.517,0.533,4.95,1.601c0.3,0.233,0.617,0.517,0.95,0.85c0.8,0.8,1.4,1.667,1.8,2.6c0.433,1,0.65,2.084,0.65,3.25
						c0,1.2-0.217,2.301-0.65,3.301c-0.4,0.933-1,1.8-1.8,2.6c-0.333,0.3-0.667,0.583-1,0.85H307.2z"/>
					<path fill-rule="evenodd" clip-rule="evenodd" fill="#2E7C92" d="M307.2,460.35h-81.95c-0.6-1-0.9-2.1-0.9-3.3
						c0-1.866,0.7-3.45,2.1-4.75c1.433-1.3,3.15-1.95,5.15-1.95c0.5,0,1,0.034,1.5,0.101c0.2-0.967,0.7-1.851,1.5-2.65
						c0.433-0.399,0.917-0.717,1.45-0.95c0-1.466,0.567-2.733,1.7-3.8s2.517-1.6,4.15-1.6c1.367,0,2.567,0.383,3.6,1.149
						c0.367-1.399,1.117-2.633,2.25-3.699c1.666-1.534,3.666-2.301,6-2.301c1.4,0,2.683,0.284,3.85,0.851
						c0.133-1.733,0.867-3.217,2.2-4.45c1.534-1.4,3.35-2.1,5.45-2.1c2.133,0,3.95,0.699,5.45,2.1c1.433,1.3,2.183,2.884,2.25,4.75
						c0.733-0.366,1.55-0.55,2.45-0.55c1.233,0,2.3,0.333,3.2,1c0.233-1.134,0.816-2.134,1.75-3c1.2-1.167,2.683-1.75,4.45-1.75
						c1.733,0,3.217,0.583,4.45,1.75c0.867,0.8,1.433,1.717,1.7,2.75c0.833-0.334,1.75-0.5,2.75-0.5c2,0,3.7,0.666,5.1,2
						c1.434,1.3,2.15,2.883,2.15,4.75c0,1.066-0.25,2.066-0.75,3c0.7-0.2,1.45-0.3,2.25-0.3c0.133,0,0.25,0,0.35,0
						c2.067,0.066,3.833,0.783,5.3,2.149c1.566,1.467,2.35,3.233,2.35,5.3c0,2.034-0.784,3.784-2.35,5.25
						C307.8,459.866,307.5,460.116,307.2,460.35z"/>
				</g>
			</g>
			<g>
				<g>
					<path fill-rule="evenodd" clip-rule="evenodd" fill="#3DA2BE" d="M578.75,457.85c0.3-0.233,0.6-0.483,0.9-0.75
						c1.566-1.466,2.35-3.216,2.35-5.25c0-2.066-0.783-3.833-2.35-5.3c-1.467-1.366-3.233-2.083-5.301-2.149c-0.1,0-0.216,0-0.35,0
						c-0.8,0-1.55,0.1-2.25,0.3c0.5-0.934,0.75-1.934,0.75-3c0-1.867-0.717-3.45-2.15-4.75c-1.399-1.334-3.1-2-5.1-2
						c-1,0-1.917,0.166-2.75,0.5c-0.267-1.033-0.833-1.95-1.7-2.75c-1.233-1.167-2.717-1.75-4.45-1.75
						c-1.767,0-3.25,0.583-4.449,1.75c-0.934,0.866-1.517,1.866-1.75,3c-0.9-0.667-1.967-1-3.2-1c-0.9,0-1.717,0.184-2.45,0.55
						c-0.066-1.866-0.816-3.45-2.25-4.75c-1.5-1.4-3.316-2.1-5.45-2.1c-2.1,0-3.916,0.699-5.45,2.1
						c-1.333,1.233-2.066,2.717-2.199,4.45c-1.167-0.566-2.45-0.851-3.851-0.851c-2.333,0-4.333,0.767-6,2.301
						c-1.133,1.066-1.883,2.3-2.25,3.699c-1.033-0.767-2.233-1.149-3.6-1.149c-1.633,0-3.017,0.533-4.15,1.6s-1.7,2.334-1.7,3.8
						c-0.533,0.233-1.017,0.551-1.45,0.95c-0.8,0.8-1.3,1.684-1.5,2.65c-0.5-0.066-1-0.101-1.5-0.101c-2,0-3.717,0.65-5.15,1.95
						c-1.4,1.3-2.1,2.884-2.1,4.75c0,1.2,0.3,2.3,0.9,3.3h-1.55c-0.633-1.1-0.95-2.333-0.95-3.699c0-2.067,0.733-3.834,2.2-5.301
						c1.467-1.466,3.25-2.199,5.35-2.199c0.533,0,1.05,0.05,1.55,0.149c0.2-1.133,0.717-2.116,1.55-2.95
						c0.466-0.466,0.983-0.833,1.55-1.1c0-1.667,0.583-3.083,1.75-4.25c1.2-1.2,2.633-1.8,4.3-1.8c1.434,0,2.684,0.434,3.75,1.3
						c0.367-1.566,1.15-2.95,2.351-4.15c1.733-1.733,3.816-2.6,6.25-2.6c1.466,0,2.8,0.316,4,0.95c0.166-1.9,0.949-3.566,2.35-5
						c1.566-1.533,3.45-2.3,5.65-2.3c2.199,0,4.083,0.767,5.649,2.3c1.467,1.5,2.25,3.283,2.351,5.35
						c0.767-0.434,1.616-0.649,2.55-0.649c1.267,0,2.366,0.383,3.3,1.149c0.233-1.267,0.833-2.383,1.8-3.35
						c1.3-1.3,2.851-1.95,4.65-1.95c1.833,0,3.383,0.65,4.649,1.95c0.9,0.899,1.483,1.934,1.75,3.1c0.9-0.366,1.867-0.55,2.9-0.55
						c2.066,0,3.833,0.733,5.3,2.2s2.2,3.233,2.2,5.3c0,1.233-0.25,2.35-0.75,3.35c0.733-0.199,1.517-0.3,2.35-0.3
						c1.867,0,3.517,0.533,4.95,1.601c0.3,0.233,0.617,0.517,0.95,0.85c0.8,0.8,1.4,1.667,1.8,2.6c0.434,1,0.65,2.084,0.65,3.25
						c0,1.2-0.217,2.301-0.65,3.301c-0.399,0.933-1,1.8-1.8,2.6c-0.333,0.3-0.667,0.583-1,0.85H578.75z"/>
					<path fill-rule="evenodd" clip-rule="evenodd" fill="#2E7C92" d="M578.75,457.85H496.8c-0.6-1-0.9-2.1-0.9-3.3
						c0-1.866,0.7-3.45,2.1-4.75c1.433-1.3,3.15-1.95,5.15-1.95c0.5,0,1,0.034,1.5,0.101c0.2-0.967,0.7-1.851,1.5-2.65
						c0.434-0.399,0.917-0.717,1.45-0.95c0-1.466,0.566-2.733,1.7-3.8s2.517-1.6,4.15-1.6c1.366,0,2.566,0.383,3.6,1.149
						c0.367-1.399,1.117-2.633,2.25-3.699c1.667-1.534,3.667-2.301,6-2.301c1.4,0,2.684,0.284,3.851,0.851
						c0.133-1.733,0.866-3.217,2.199-4.45c1.534-1.4,3.351-2.1,5.45-2.1c2.134,0,3.95,0.699,5.45,2.1
						c1.434,1.3,2.184,2.884,2.25,4.75c0.733-0.366,1.55-0.55,2.45-0.55c1.233,0,2.3,0.333,3.2,1c0.233-1.134,0.816-2.134,1.75-3
						c1.199-1.167,2.683-1.75,4.449-1.75c1.733,0,3.217,0.583,4.45,1.75c0.867,0.8,1.434,1.717,1.7,2.75
						c0.833-0.334,1.75-0.5,2.75-0.5c2,0,3.7,0.666,5.1,2c1.434,1.3,2.15,2.883,2.15,4.75c0,1.066-0.25,2.066-0.75,3
						c0.7-0.2,1.45-0.3,2.25-0.3c0.134,0,0.25,0,0.35,0c2.067,0.066,3.834,0.783,5.301,2.149c1.566,1.467,2.35,3.233,2.35,5.3
						c0,2.034-0.783,3.784-2.35,5.25C579.35,457.366,579.05,457.616,578.75,457.85z"/>
				</g>
			</g>
			<g>
				<g>
					<path fill-rule="evenodd" clip-rule="evenodd" fill="#3DA2BE" d="M872.5,457.85h-1.25c-0.533-0.899-0.8-1.916-0.8-3.05
						c0-1.7,0.6-3.133,1.8-4.3c1.2-1.2,2.667-1.8,4.4-1.8c0.433,0,0.85,0.033,1.25,0.1c0.166-0.934,0.6-1.733,1.3-2.399
						c0.366-0.4,0.783-0.7,1.25-0.9c0-1.366,0.483-2.533,1.45-3.5c0.966-0.967,2.133-1.45,3.5-1.45c1.166,0,2.183,0.351,3.05,1.05
						c0.3-1.267,0.95-2.399,1.95-3.399c1.399-1.4,3.1-2.101,5.1-2.101c1.2,0,2.283,0.25,3.25,0.75c0.134-1.533,0.783-2.899,1.95-4.1
						c1.267-1.233,2.8-1.85,4.6-1.85c1.8,0,3.351,0.616,4.65,1.85c1.2,1.233,1.833,2.7,1.899,4.4
						c0.634-0.367,1.334-0.551,2.101-0.551c1.033,0,1.934,0.317,2.7,0.95c0.199-1.033,0.683-1.95,1.449-2.75
						c1.067-1.066,2.334-1.6,3.801-1.6c1.5,0,2.767,0.533,3.8,1.6c0.733,0.733,1.217,1.584,1.45,2.55
						c0.733-0.3,1.517-0.449,2.35-0.449c1.7,0,3.15,0.6,4.35,1.8c1.2,1.2,1.801,2.649,1.801,4.35c0,1-0.2,1.9-0.601,2.7
						c0.601-0.134,1.233-0.2,1.9-0.2c1.533,0,2.883,0.434,4.05,1.3c0.267,0.167,0.533,0.4,0.8,0.7
						c0.634,0.634,1.117,1.334,1.45,2.101c0.366,0.833,0.55,1.716,0.55,2.649c0,1-0.184,1.9-0.55,2.7
						c-0.333,0.767-0.816,1.483-1.45,2.15c-0.267,0.233-0.55,0.466-0.85,0.699h-1.4c0.233-0.199,0.483-0.416,0.75-0.649
						c1.267-1.2,1.9-2.617,1.9-4.25c0-1.7-0.634-3.15-1.9-4.351c-1.2-1.133-2.649-1.716-4.35-1.75c-0.101,0-0.2,0-0.3,0
						c-0.634,0-1.25,0.084-1.851,0.25c0.434-0.767,0.65-1.583,0.65-2.449c0-1.534-0.601-2.834-1.8-3.9
						c-1.134-1.1-2.517-1.65-4.15-1.65c-0.833,0-1.583,0.134-2.25,0.4c-0.233-0.833-0.7-1.583-1.4-2.25
						c-1-0.934-2.216-1.4-3.649-1.4s-2.634,0.467-3.601,1.4c-0.767,0.733-1.25,1.55-1.449,2.45c-0.733-0.533-1.601-0.8-2.601-0.8
						c-0.733,0-1.399,0.149-2,0.449c-0.066-1.533-0.684-2.833-1.85-3.899c-1.233-1.134-2.717-1.7-4.45-1.7s-3.233,0.566-4.5,1.7
						c-1.066,1.033-1.667,2.25-1.8,3.649c-0.934-0.466-1.967-0.699-3.101-0.699c-1.933,0-3.583,0.633-4.949,1.899
						c-0.9,0.867-1.5,1.867-1.801,3c-0.866-0.6-1.85-0.899-2.949-0.899c-1.334,0-2.467,0.433-3.4,1.3
						c-0.934,0.866-1.4,1.899-1.4,3.1c-0.433,0.2-0.833,0.45-1.199,0.75c-0.634,0.667-1.034,1.4-1.2,2.2
						c-0.434-0.066-0.851-0.1-1.25-0.1c-1.634,0-3.033,0.533-4.2,1.6c-1.134,1.066-1.7,2.366-1.7,3.9
						C871.8,456.116,872.033,457.017,872.5,457.85z"/>
					<path fill-rule="evenodd" clip-rule="evenodd" fill="#2E7C92" d="M939.55,457.85H872.5c-0.467-0.833-0.7-1.733-0.7-2.699
						c0-1.534,0.566-2.834,1.7-3.9c1.167-1.066,2.566-1.6,4.2-1.6c0.399,0,0.816,0.033,1.25,0.1c0.166-0.8,0.566-1.533,1.2-2.2
						c0.366-0.3,0.767-0.55,1.199-0.75c0-1.2,0.467-2.233,1.4-3.1c0.934-0.867,2.066-1.3,3.4-1.3c1.1,0,2.083,0.3,2.949,0.899
						c0.301-1.133,0.9-2.133,1.801-3c1.366-1.267,3.017-1.899,4.949-1.899c1.134,0,2.167,0.233,3.101,0.699
						c0.133-1.399,0.733-2.616,1.8-3.649c1.267-1.134,2.767-1.7,4.5-1.7s3.217,0.566,4.45,1.7c1.166,1.066,1.783,2.366,1.85,3.899
						c0.601-0.3,1.267-0.449,2-0.449c1,0,1.867,0.267,2.601,0.8c0.199-0.9,0.683-1.717,1.449-2.45c0.967-0.934,2.167-1.4,3.601-1.4
						s2.649,0.467,3.649,1.4c0.7,0.667,1.167,1.417,1.4,2.25c0.667-0.267,1.417-0.4,2.25-0.4c1.634,0,3.017,0.551,4.15,1.65
						c1.199,1.066,1.8,2.366,1.8,3.9c0,0.866-0.217,1.683-0.65,2.449c0.601-0.166,1.217-0.25,1.851-0.25c0.1,0,0.199,0,0.3,0
						c1.7,0.034,3.149,0.617,4.35,1.75c1.267,1.2,1.9,2.65,1.9,4.351c0,1.633-0.634,3.05-1.9,4.25
						C940.033,457.434,939.783,457.65,939.55,457.85z"/>
				</g>
			</g>
		</g>
		<g>
			<g>
				<g>
					<path fill-rule="evenodd" clip-rule="evenodd" fill="#0C3139" d="M395.05,431.35c4.9,1.434,8.583,2.5,11.05,3.2
						c2.5,0.8,6.2,1.684,11.1,2.65l0.45,3.5c-2.066-0.167-4.316-0.351-6.75-0.55c-7.5-0.634-13.15-1.2-16.95-1.7L395.05,431.35z
						 M415.6,425.75c-4.434,0.767-7.35,1.167-8.75,1.2c-2.667,0.066-6.25,0.383-10.75,0.95c-0.167,0.033-0.333,0.066-0.5,0.1
						l0.6-3.8c6.733-0.2,13.083-0.434,19.05-0.7L415.6,425.75z M395.35,429.95c4.433,1.1,5,1.517,1.7,1.25
						c-0.667-0.101-1.3-0.184-1.9-0.25L395.35,429.95z M413.9,413.6c-0.933,0.4-1.933,0.851-3,1.351
						c-6.267,2.833-10.983,4.883-14.15,6.149l2.55-16.3l11.75-11.7L413.9,413.6z M393.5,441.45c3.467,1.767,7.15,3.05,11.05,3.85
						c6.133,0.8,10.833,1.684,14.1,2.65l0.45,3.55c-5.467-0.833-10.6-1.634-15.4-2.4c-4.733-0.767-8.434-1.399-11.1-1.899
						L393.5,441.45z M390.55,460.15l1.75-11.051c1.5,0.567,3.35,1.084,5.55,1.551l14.1,5.8
						C405.95,457.45,398.817,458.684,390.55,460.15z"/>
					<path fill-rule="evenodd" clip-rule="evenodd" fill="#124B58" d="M417.65,440.7l1,7.25c-3.267-0.967-7.967-1.851-14.1-2.65
						c-3.9-0.8-7.583-2.083-11.05-3.85l0.45-3c3.8,0.5,9.45,1.066,16.95,1.7C413.333,440.35,415.583,440.533,417.65,440.7z
						 M415.25,423.5c-5.967,0.267-12.317,0.5-19.05,0.7l0.55-3.101c3.167-1.267,7.883-3.316,14.15-6.149
						c1.067-0.5,2.067-0.95,3-1.351L415.25,423.5z M395.05,431.35l0.1-0.399c0.6,0.066,1.233,0.149,1.9,0.25
						c3.3,0.267,2.733-0.15-1.7-1.25l0.25-1.95c0.167-0.033,0.333-0.066,0.5-0.1c4.5-0.567,8.083-0.884,10.75-0.95
						c1.4-0.033,4.316-0.434,8.75-1.2l1.6,11.45c-4.9-0.967-8.6-1.851-11.1-2.65C403.633,433.85,399.95,432.783,395.05,431.35z
						 M390.55,460.15c8.267-1.467,15.4-2.7,21.4-3.7l-14.1-5.8c-2.2-0.467-4.05-0.983-5.55-1.551l0.3-1.899
						c2.667,0.5,6.367,1.133,11.1,1.899c4.8,0.767,9.933,1.567,15.4,2.4l1.75,12.2L390,463.75L390.55,460.15z"/>
				</g>
			</g>
			<g>
				<g>
					<path fill-rule="evenodd" clip-rule="evenodd" fill="#0DC6C1" d="M380.9,395.15c0.467-0.2,0.967-0.367,1.5-0.5
						c-1-0.334-1.767-0.934-2.3-1.801c-0.467-1.333-0.7-2.033-0.7-2.1c0-0.7,0.6-1.233,1.8-1.6c0.767-0.233,1.583-0.351,2.45-0.351
						h0.05c-0.3-0.267-0.517-0.483-0.65-0.649c-0.533-0.733-0.8-1.65-0.8-2.75c0-0.733,0.467-1.384,1.4-1.95
						c0.833-0.467,1.55-0.7,2.15-0.7c0.034,0,0.083,0,0.15,0c0,0.134,0.017,0.233,0.05,0.3c0,0.367,0.167,0.767,0.5,1.2v0.95
						c-0.333-0.233-0.833-0.167-1.5,0.2c-0.767,0.366-1.15,0.899-1.15,1.6c0,0.267,0.167,0.65,0.5,1.15
						c0.4,0.633,0.667,1.216,0.8,1.75c-0.9,0.333-1.55,0.566-1.95,0.699c-0.633,0.301-0.95,0.634-0.95,1c0,0.534,0.2,1.034,0.6,1.5
						c0.867,0.9,1.383,1.483,1.55,1.75C383.367,395.017,382.2,395.116,380.9,395.15z M385.9,382.15
						c-0.566-0.767-0.85-1.65-0.85-2.65c0-2.1,1.083-3.75,3.25-4.95c1.667-0.967,3.483-1.45,5.45-1.45s3.5,1.134,4.6,3.4
						c0.233,0.434,0.433,0.866,0.6,1.3c0-1.434,0.45-2.684,1.35-3.75c1.3-1.566,3.083-2.35,5.35-2.35
						c1.233,0,2.083,0.717,2.55,2.149c0.233,0.733,0.35,1.551,0.35,2.45c0,0.5,0,0.934,0,1.3c0.067-0.133,0.15-0.233,0.25-0.3
						c1.133-1.399,2.35-2.1,3.65-2.1c0.867,0,1.566,0.366,2.1,1.1c0.467,0.634,0.7,1.351,0.7,2.15s-0.367,1.467-1.1,2
						c1.1-0.467,2.333-1.017,3.7-1.65c1.9-0.7,3.767-1.05,5.6-1.05c2.233,0,3.767,0.483,4.6,1.45c0.733,0.833,1.1,2.316,1.1,4.45
						c0,2-1.066,3.55-3.2,4.649c-0.133,0.066-0.25,0.117-0.35,0.15c0,0.1,0,0.2,0,0.3c0,0.767-0.2,1.5-0.6,2.2v0.1
						c0.2-0.2,0.45-0.399,0.75-0.6c1.2-0.834,2.083-1.384,2.65-1.65c1.434-0.633,2.617-0.633,3.55,0c0.3,0.167,0.6,0.65,0.9,1.45
						c0.3,0.8,0.3,1.684,0,2.65c-0.333,1-1.15,2.116-2.45,3.35c0.233-0.1,0.483-0.167,0.75-0.2c-0.5,0.233-0.867,0.351-1.1,0.351
						c0.067-0.134,0.184-0.4,0.35-0.801c0.167-0.366,0.25-0.733,0.25-1.1c0-1-0.083-1.767-0.25-2.3c-0.3-0.867-0.9-1.3-1.8-1.3
						c-0.5,0-1.117,0.233-1.85,0.699c-0.9,0.5-1.6,1.15-2.1,1.95V393.4c0.333-0.534,0.2-1.417-0.4-2.65
						c-0.533-1.2-1.1-1.833-1.7-1.9c0.133,0,0.2-0.05,0.2-0.149c0.633-0.834,1.25-1.517,1.85-2.05c0.233-0.334,0.35-0.983,0.35-1.95
						c0-1.167-0.534-2.267-1.6-3.3c-1.233-1.2-2.717-1.801-4.45-1.801c-1.066,0-2.066,0.217-3,0.65c-0.8,0.4-1.5,0.9-2.1,1.5
						c0.1-0.4,0.15-0.783,0.15-1.15c0-0.933-0.2-1.666-0.6-2.199c-0.434-0.567-1.067-0.851-1.9-0.851c-0.567,0-0.967,0.084-1.2,0.25
						c-0.7,0.467-1.283,0.834-1.75,1.101c-0.133-0.834-0.5-1.617-1.1-2.351c-0.7-0.833-1.433-1.25-2.2-1.25
						c-1,0-1.917,0.467-2.75,1.4c-0.967,1.066-1.3,2.416-1,4.05c-0.333-0.833-1.25-1.85-2.75-3.05c-1.7-1.367-3.184-2.05-4.45-2.05
						c-2.333,0-4.283,0.533-5.85,1.6c-1.667,1.134-2.5,2.65-2.5,4.55C385.9,381.934,385.9,382.05,385.9,382.15z"/>
					<path fill-rule="evenodd" clip-rule="evenodd" fill="#0AA3A0" d="M433.3,401.95c0.267,0.066,0.567,0.149,0.9,0.25
						c0.767,0.3,1.15,0.899,1.15,1.8c0,0.5-0.083,0.684-0.25,0.55h-2.65l-2.65-2.6c-0.233,0.6-0.35,1.45-0.35,2.55
						c-0.2,0.833-0.733,1.25-1.6,1.25c-1.667,0-3.117-0.434-4.35-1.3c-1.267-0.834-2-1.967-2.2-3.4c0,0.2-0.117,0.3-0.35,0.3
						c0.167,0.567-0.083,1.367-0.75,2.4c-0.767,1.134-1.583,1.7-2.45,1.7c-0.833,0-1.733-0.733-2.7-2.2
						c-0.9-1.3-1.383-2.333-1.45-3.1c-0.567,1.199-1.533,2.416-2.9,3.649c-1.367,1.3-2.383,1.95-3.05,1.95
						c-1.733,0-3.316-0.583-4.75-1.75c-1.933-1.533-3.533-2.517-4.8-2.95c0.9,1.834,0.566,4-1,6.5c-0.133,0.733-0.467,1.25-1,1.55
						c-0.6,0.334-1.667,0.5-3.2,0.5c-2.2,0-3.833-0.666-4.9-2c-1.1-1.433-1.367-3.416-0.8-5.949c-6.4,3.767-9.75,3.566-10.05-0.601
						c-0.1-1.033-0.167-2-0.2-2.899c0.566-0.867,1.316-1.601,2.25-2.2c0.5-0.3,1.066-0.566,1.7-0.8c1.3-0.034,2.467-0.134,3.5-0.301
						c-0.167-0.267-0.683-0.85-1.55-1.75c-0.4-0.466-0.6-0.966-0.6-1.5c0-0.366,0.317-0.699,0.95-1c0.4-0.133,1.05-0.366,1.95-0.699
						c-0.133-0.534-0.4-1.117-0.8-1.75c-0.333-0.5-0.5-0.884-0.5-1.15c0-0.7,0.383-1.233,1.15-1.6c0.667-0.367,1.167-0.434,1.5-0.2
						v-0.95c-0.333-0.434-0.5-0.833-0.5-1.2c-0.033-0.066-0.05-0.166-0.05-0.3c0.133,0,0.283,0.017,0.45,0.05
						c-0.2-0.2-0.367-0.416-0.5-0.649c0-0.101,0-0.217,0-0.351c0-1.899,0.833-3.416,2.5-4.55c1.567-1.066,3.517-1.6,5.85-1.6
						c1.267,0,2.75,0.683,4.45,2.05c1.5,1.2,2.417,2.217,2.75,3.05c-0.3-1.634,0.033-2.983,1-4.05c0.833-0.934,1.75-1.4,2.75-1.4
						c0.767,0,1.5,0.417,2.2,1.25c0.6,0.733,0.967,1.517,1.1,2.351c0.467-0.267,1.05-0.634,1.75-1.101
						c0.233-0.166,0.633-0.25,1.2-0.25c0.833,0,1.466,0.283,1.9,0.851c0.4,0.533,0.6,1.267,0.6,2.199c0,0.367-0.05,0.75-0.15,1.15
						c0.6-0.6,1.3-1.1,2.1-1.5c0.934-0.434,1.934-0.65,3-0.65c1.733,0,3.217,0.601,4.45,1.801c1.066,1.033,1.6,2.133,1.6,3.3
						c0,0.967-0.117,1.616-0.35,1.95c-0.6,0.533-1.217,1.216-1.85,2.05c0,0.1-0.067,0.149-0.2,0.149c0.6,0.067,1.167,0.7,1.7,1.9
						c0.6,1.233,0.733,2.116,0.4,2.65v0.149c0.5-0.8,1.2-1.45,2.1-1.95c0.733-0.466,1.35-0.699,1.85-0.699c0.9,0,1.5,0.433,1.8,1.3
						c0.167,0.533,0.25,1.3,0.25,2.3c0,0.366-0.083,0.733-0.25,1.1c-0.167,0.4-0.283,0.667-0.35,0.801c0.233,0,0.6-0.117,1.1-0.351
						h0.05c0.767-0.133,1.566-0.05,2.4,0.25c0.9,0,1.783,0.45,2.65,1.351c0,0.267,0,0.566,0,0.899c0,1-0.083,1.601-0.25,1.8
						c-0.133,0.167-0.4,0.184-0.8,0.051c-1.233-0.367-2.35-0.051-3.35,0.949c0.333,0.2,0.767,0.384,1.3,0.551
						c0,0.031-0.033,0.048-0.1,0.05C433.123,401.95,433.206,401.95,433.3,401.95z"/>
					<path fill-rule="evenodd" clip-rule="evenodd" fill="#098885" d="M433.15,401.9c-0.533-0.167-0.967-0.351-1.3-0.551
						c1-1,2.117-1.316,3.35-0.949c0.4,0.133,0.667,0.116,0.8-0.051c0.167-0.199,0.25-0.8,0.25-1.8c0-0.333,0-0.633,0-0.899
						c0.7,0.8,1.05,1.416,1.05,1.85c0,0.8-0.5,1.4-1.5,1.8C435.433,401.467,434.55,401.667,433.15,401.9z M376.95,398.15
						c0.033,0.899,0.1,1.866,0.2,2.899c0.3,4.167,3.65,4.367,10.05,0.601c-0.567,2.533-0.3,4.517,0.8,5.949c1.067,1.334,2.7,2,4.9,2
						c1.533,0,2.6-0.166,3.2-0.5c0.533-0.3,0.867-0.816,1-1.55c1.566-2.5,1.9-4.666,1-6.5c1.267,0.434,2.867,1.417,4.8,2.95
						c1.434,1.167,3.017,1.75,4.75,1.75c0.667,0,1.684-0.65,3.05-1.95c1.367-1.233,2.333-2.45,2.9-3.649
						c0.066,0.767,0.55,1.8,1.45,3.1c0.967,1.467,1.867,2.2,2.7,2.2c0.867,0,1.683-0.566,2.45-1.7c0.667-1.033,0.917-1.833,0.75-2.4
						c0.233,0,0.35-0.1,0.35-0.3c0.2,1.434,0.934,2.566,2.2,3.4c1.233,0.866,2.683,1.3,4.35,1.3c0.867,0,1.4-0.417,1.6-1.25
						c0-1.1,0.117-1.95,0.35-2.55l2.65,2.6h2.65c0.167,0.134,0.25-0.05,0.25-0.55c0-0.9-0.383-1.5-1.15-1.8
						c-0.333-0.101-0.633-0.184-0.9-0.25c1.967,0.066,2.967,0.1,3,0.1c1.267,0.134,2.067,0.7,2.4,1.7c0.5,0.566,0.5,1.134,0,1.7
						c-0.467,0.3-1.45,0.45-2.95,0.45c-1,0-2.05-0.167-3.15-0.5c-0.467-0.101-0.917-0.25-1.35-0.45c-0.033,0.3-0.383,0.967-1.05,2
						c-1.5,0.833-3.167,1.184-5,1.05c-1.833-0.833-2.934-1.583-3.3-2.25c-0.066-0.1-0.1-0.2-0.1-0.3
						c-0.133,0.434-0.25,0.934-0.35,1.5c-0.434,0.934-1.184,1.399-2.25,1.399c-1.267,0-2.483-0.416-3.65-1.25
						c-1.267-0.866-1.95-1.767-2.05-2.699h-0.35c-0.233,1.733-0.667,2.883-1.3,3.449c-0.633,0.534-1.733,0.801-3.3,0.801
						c-1.767,0-3.55-0.7-5.35-2.101c-1.534-1.5-2.367-2.316-2.5-2.45c-0.133,5.434-2.383,8.15-6.75,8.15
						c-1.034,0-2.217-0.35-3.55-1.05c-1.433-0.733-2.15-1.45-2.15-2.15c0-0.133,0.033-0.3,0.1-0.5c-0.067,0.066-0.15,0.167-0.25,0.3
						c-1.4,1.567-3.533,2.351-6.4,2.351c-2.5,0-4.233-0.7-5.2-2.101c-0.7-1.1-1.05-3.017-1.05-5.75
						C375.45,401.25,375.95,399.517,376.95,398.15z"/>
				</g>
			</g>
		</g>
	</g>
</g>
<g id="Layer_3" display="none">
	<g display="inline">
		<g>
			<g>
				<path fill-rule="evenodd" clip-rule="evenodd" fill="#44110D" d="M0,495.4h1024v16.55H0V495.4z M1024,464.4v20.5H0v-20.5H1024z"
					/>
				<rect y="487.4" fill-rule="evenodd" clip-rule="evenodd" fill="#5B1611" width="1024" height="5.5"/>
				<rect y="484.9" fill-rule="evenodd" clip-rule="evenodd" fill="#7B1F17" width="1024" height="2.5"/>
				<polygon fill-rule="evenodd" clip-rule="evenodd" fill="#B5BB4F" points="1024,464.4 0,464.4 0,452.9 1023.95,452.9 				"/>
				<rect y="492.9" fill-rule="evenodd" clip-rule="evenodd" fill="#340D0A" width="1024" height="2.5"/>
			</g>
		</g>
		<g>
			<path fill-rule="evenodd" clip-rule="evenodd" fill="#B5BB4F" d="M156.35,473.25c-1.8,1.8-3.983,2.7-6.55,2.7
				c-2.566,0-4.75-0.9-6.55-2.7c-1.8-1.8-2.7-3.983-2.7-6.55s0.9-4.75,2.7-6.55c1.8-1.801,3.983-2.7,6.55-2.7
				c2.567,0,4.75,0.899,6.55,2.7c1.8,1.8,2.7,3.983,2.7,6.55S158.15,471.45,156.35,473.25z"/>
			<path fill-rule="evenodd" clip-rule="evenodd" fill="#B5BB4F" d="M164.625,465.625c2.733,4.919,3.658,7.744,2.775,8.475
				c-1.07-0.515-2.437-1.048-4.1-1.6c-1.666-0.544-3.124-1.478-4.375-2.8c-1.249-1.331-1.874-2.681-1.875-4.05
				c0-1.367,0.617-2.551,1.85-3.551c1.059-0.806,2.117-1.405,3.175-1.8C162.427,461.429,163.277,463.204,164.625,465.625z"/>
			<path fill-rule="evenodd" clip-rule="evenodd" fill="#B5BB4F" d="M133.575,465.625c-2.733,4.919-3.658,7.744-2.775,8.475
				c1.07-0.515,2.437-1.048,4.1-1.6c1.667-0.544,3.125-1.478,4.375-2.8c1.25-1.331,1.875-2.682,1.875-4.051
				c0-1.366-0.617-2.55-1.85-3.55c-1.059-0.806-2.117-1.405-3.175-1.8C135.773,461.429,134.923,463.204,133.575,465.625z"/>
		</g>
		<g>
			<path fill-rule="evenodd" clip-rule="evenodd" fill="#B5BB4F" d="M264.4,473.25c-1.8,1.8-3.983,2.7-6.55,2.7
				c-2.567,0-4.75-0.9-6.55-2.7c-1.8-1.8-2.7-3.983-2.7-6.55s0.9-4.75,2.7-6.55c1.8-1.801,3.983-2.7,6.55-2.7
				c2.566,0,4.75,0.899,6.55,2.7c1.8,1.8,2.7,3.983,2.7,6.55S266.2,471.45,264.4,473.25z"/>
			<path fill-rule="evenodd" clip-rule="evenodd" fill="#B5BB4F" d="M272.675,465.625c2.733,4.919,3.658,7.744,2.775,8.475
				c-1.07-0.515-2.437-1.048-4.1-1.6c-1.667-0.544-3.125-1.478-4.375-2.8c-1.25-1.331-1.875-2.681-1.875-4.05
				c0-1.367,0.617-2.551,1.85-3.551c1.059-0.806,2.117-1.405,3.175-1.8C270.477,461.429,271.327,463.204,272.675,465.625z"/>
			<path fill-rule="evenodd" clip-rule="evenodd" fill="#B5BB4F" d="M241.625,465.625c-2.733,4.919-3.658,7.744-2.775,8.475
				c1.07-0.515,2.436-1.048,4.1-1.6c1.667-0.544,3.124-1.478,4.375-2.8c1.249-1.331,1.874-2.682,1.875-4.051
				c0-1.366-0.617-2.55-1.85-3.55c-1.059-0.806-2.117-1.405-3.175-1.8C243.823,461.429,242.973,463.204,241.625,465.625z"/>
		</g>
		<g>
			<path fill-rule="evenodd" clip-rule="evenodd" fill="#B5BB4F" d="M52.85,473.75c-1.8,1.8-3.983,2.7-6.55,2.7
				c-2.566,0-4.75-0.9-6.55-2.7s-2.7-3.983-2.7-6.55s0.9-4.75,2.7-6.55c1.8-1.801,3.983-2.7,6.55-2.7c2.567,0,4.75,0.899,6.55,2.7
				c1.8,1.8,2.7,3.983,2.7,6.55S54.65,471.95,52.85,473.75z"/>
			<path fill-rule="evenodd" clip-rule="evenodd" fill="#B5BB4F" d="M61.125,466.125c2.733,4.919,3.658,7.744,2.775,8.475
				c-1.07-0.515-2.436-1.048-4.1-1.6c-1.667-0.544-3.125-1.478-4.375-2.8c-1.25-1.331-1.875-2.681-1.875-4.05
				c0-1.367,0.617-2.551,1.85-3.551c1.059-0.806,2.117-1.405,3.175-1.8C58.927,461.929,59.777,463.704,61.125,466.125z"/>
			<path fill-rule="evenodd" clip-rule="evenodd" fill="#B5BB4F" d="M30.075,466.125c-2.733,4.919-3.658,7.744-2.775,8.475
				c1.07-0.515,2.436-1.048,4.1-1.6c1.666-0.544,3.124-1.478,4.375-2.8c1.25-1.331,1.875-2.682,1.875-4.051
				c0-1.366-0.617-2.55-1.85-3.55c-1.059-0.806-2.117-1.405-3.175-1.8C32.273,461.929,31.423,463.704,30.075,466.125z"/>
		</g>
		<g>
			<path fill-rule="evenodd" clip-rule="evenodd" fill="#B5BB4F" d="M367.9,473.75c-1.8,1.8-3.983,2.7-6.55,2.7
				c-2.567,0-4.75-0.9-6.55-2.7c-1.8-1.8-2.7-3.983-2.7-6.55s0.9-4.75,2.7-6.55c1.8-1.801,3.983-2.7,6.55-2.7
				c2.566,0,4.75,0.899,6.55,2.7c1.8,1.8,2.7,3.983,2.7,6.55S369.7,471.95,367.9,473.75z"/>
			<path fill-rule="evenodd" clip-rule="evenodd" fill="#B5BB4F" d="M376.175,466.125c2.733,4.919,3.658,7.744,2.775,8.475
				c-1.07-0.515-2.437-1.048-4.1-1.6c-1.667-0.544-3.125-1.478-4.375-2.8c-1.25-1.331-1.875-2.681-1.875-4.05
				c0-1.367,0.617-2.551,1.85-3.551c1.059-0.806,2.117-1.405,3.175-1.8C373.977,461.929,374.827,463.704,376.175,466.125z"/>
			<path fill-rule="evenodd" clip-rule="evenodd" fill="#B5BB4F" d="M345.125,466.125c-2.733,4.919-3.658,7.744-2.775,8.475
				c1.07-0.515,2.436-1.048,4.1-1.6c1.667-0.544,3.124-1.478,4.375-2.8c1.249-1.331,1.874-2.682,1.875-4.051
				c0-1.366-0.617-2.55-1.85-3.55c-1.059-0.806-2.117-1.405-3.175-1.8C347.323,461.929,346.473,463.704,345.125,466.125z"/>
		</g>
		<g>
			<path fill-rule="evenodd" clip-rule="evenodd" fill="#B5BB4F" d="M578.35,473.25c-1.8,1.8-3.982,2.7-6.55,2.7
				c-2.566,0-4.75-0.9-6.55-2.7s-2.7-3.983-2.7-6.55s0.9-4.75,2.7-6.55c1.8-1.801,3.983-2.7,6.55-2.7c2.567,0,4.75,0.899,6.55,2.7
				c1.801,1.8,2.7,3.983,2.7,6.55S580.15,471.45,578.35,473.25z"/>
			<path fill-rule="evenodd" clip-rule="evenodd" fill="#B5BB4F" d="M586.625,465.625c2.732,4.919,3.658,7.744,2.775,8.475
				c-1.07-0.515-2.438-1.048-4.101-1.6c-1.666-0.544-3.125-1.478-4.375-2.8c-1.249-1.331-1.874-2.681-1.875-4.05
				c0-1.367,0.617-2.551,1.851-3.551c1.059-0.806,2.117-1.405,3.175-1.8C584.427,461.429,585.277,463.204,586.625,465.625z"/>
			<path fill-rule="evenodd" clip-rule="evenodd" fill="#B5BB4F" d="M555.575,465.625c-2.733,4.919-3.657,7.744-2.774,8.475
				c1.07-0.515,2.435-1.048,4.1-1.6c1.666-0.544,3.125-1.478,4.375-2.8c1.25-1.331,1.875-2.682,1.875-4.051
				c0-1.366-0.617-2.55-1.85-3.55c-1.059-0.806-2.117-1.405-3.176-1.8C557.773,461.429,556.924,463.204,555.575,465.625z"/>
		</g>
		<g>
			<path fill-rule="evenodd" clip-rule="evenodd" fill="#B5BB4F" d="M686.4,473.25c-1.801,1.8-3.983,2.7-6.551,2.7
				c-2.566,0-4.75-0.9-6.55-2.7s-2.7-3.983-2.7-6.55s0.9-4.75,2.7-6.55c1.8-1.801,3.983-2.7,6.55-2.7c2.567,0,4.75,0.899,6.551,2.7
				c1.8,1.8,2.699,3.983,2.699,6.55S688.2,471.45,686.4,473.25z"/>
			<path fill-rule="evenodd" clip-rule="evenodd" fill="#B5BB4F" d="M694.675,465.625c2.733,4.919,3.658,7.744,2.775,8.475
				c-1.07-0.515-2.438-1.048-4.101-1.6c-1.666-0.544-3.125-1.478-4.375-2.8c-1.249-1.331-1.874-2.681-1.875-4.05
				c0-1.367,0.617-2.551,1.851-3.551c1.059-0.806,2.117-1.405,3.175-1.8C692.477,461.429,693.327,463.204,694.675,465.625z"/>
			<path fill-rule="evenodd" clip-rule="evenodd" fill="#B5BB4F" d="M663.625,465.625c-2.732,4.919-3.658,7.744-2.775,8.475
				c1.07-0.515,2.438-1.048,4.101-1.6c1.667-0.544,3.124-1.478,4.375-2.8c1.249-1.331,1.874-2.682,1.875-4.051
				c0-1.366-0.616-2.55-1.851-3.55c-1.059-0.806-2.117-1.405-3.175-1.8C665.822,461.429,664.973,463.204,663.625,465.625z"/>
		</g>
		<g>
			<path fill-rule="evenodd" clip-rule="evenodd" fill="#B5BB4F" d="M474.85,473.75c-1.8,1.8-3.983,2.7-6.55,2.7
				c-2.566,0-4.75-0.9-6.55-2.7c-1.8-1.8-2.7-3.983-2.7-6.55s0.9-4.75,2.7-6.55c1.8-1.801,3.983-2.7,6.55-2.7
				c2.567,0,4.75,0.899,6.55,2.7c1.8,1.8,2.7,3.983,2.7,6.55S476.65,471.95,474.85,473.75z"/>
			<path fill-rule="evenodd" clip-rule="evenodd" fill="#B5BB4F" d="M483.125,466.125c2.733,4.919,3.658,7.744,2.775,8.475
				c-1.07-0.515-2.437-1.048-4.1-1.6c-1.666-0.544-3.124-1.478-4.375-2.8c-1.249-1.331-1.874-2.681-1.875-4.05
				c0-1.367,0.617-2.551,1.85-3.551c1.059-0.806,2.117-1.405,3.175-1.8C480.927,461.929,481.777,463.704,483.125,466.125z"/>
			<path fill-rule="evenodd" clip-rule="evenodd" fill="#B5BB4F" d="M452.075,466.125c-2.733,4.919-3.658,7.744-2.775,8.475
				c1.07-0.515,2.436-1.048,4.1-1.6c1.667-0.544,3.125-1.478,4.375-2.8c1.25-1.331,1.875-2.682,1.875-4.051
				c0-1.366-0.617-2.55-1.85-3.55c-1.059-0.806-2.117-1.405-3.175-1.8C454.273,461.929,453.423,463.704,452.075,466.125z"/>
		</g>
		<g>
			<path fill-rule="evenodd" clip-rule="evenodd" fill="#B5BB4F" d="M793.9,473.75c-1.801,1.8-3.983,2.7-6.551,2.7
				c-2.566,0-4.75-0.9-6.55-2.7s-2.7-3.983-2.7-6.55s0.9-4.75,2.7-6.55c1.8-1.801,3.983-2.7,6.55-2.7c2.567,0,4.75,0.899,6.551,2.7
				c1.8,1.8,2.699,3.983,2.699,6.55S795.7,471.95,793.9,473.75z"/>
			<path fill-rule="evenodd" clip-rule="evenodd" fill="#B5BB4F" d="M802.175,466.125c2.733,4.919,3.658,7.744,2.775,8.475
				c-1.07-0.515-2.438-1.048-4.101-1.6c-1.666-0.544-3.125-1.478-4.375-2.8c-1.249-1.331-1.874-2.681-1.875-4.05
				c0-1.367,0.617-2.551,1.851-3.551c1.059-0.806,2.117-1.405,3.175-1.8C799.977,461.929,800.827,463.704,802.175,466.125z"/>
			<path fill-rule="evenodd" clip-rule="evenodd" fill="#B5BB4F" d="M771.125,466.125c-2.732,4.919-3.658,7.744-2.775,8.475
				c1.07-0.515,2.438-1.048,4.101-1.6c1.667-0.544,3.124-1.478,4.375-2.8c1.249-1.331,1.874-2.682,1.875-4.051
				c0-1.366-0.616-2.55-1.851-3.55c-1.059-0.806-2.117-1.405-3.175-1.8C773.322,461.929,772.473,463.704,771.125,466.125z"/>
		</g>
		<g>
			<path fill-rule="evenodd" clip-rule="evenodd" fill="#B5BB4F" d="M1010.35,473.25c-1.8,1.8-3.982,2.7-6.55,2.7
				c-2.566,0-4.75-0.9-6.55-2.7s-2.7-3.983-2.7-6.55s0.9-4.75,2.7-6.55c1.8-1.801,3.983-2.7,6.55-2.7c2.567,0,4.75,0.899,6.55,2.7
				c1.801,1.8,2.7,3.983,2.7,6.55S1012.15,471.45,1010.35,473.25z"/>
			<path fill-rule="evenodd" clip-rule="evenodd" fill="#B5BB4F" d="M1018.625,465.625c2.732,4.919,3.658,7.744,2.775,8.475
				c-1.07-0.515-2.438-1.048-4.101-1.6c-1.666-0.544-3.125-1.478-4.375-2.8c-1.249-1.331-1.874-2.681-1.875-4.05
				c0-1.367,0.617-2.551,1.851-3.551c1.059-0.806,2.117-1.405,3.175-1.8C1016.427,461.429,1017.277,463.204,1018.625,465.625z"/>
			<path fill-rule="evenodd" clip-rule="evenodd" fill="#B5BB4F" d="M987.575,465.625c-2.733,4.919-3.657,7.744-2.774,8.475
				c1.07-0.515,2.435-1.048,4.1-1.6c1.666-0.544,3.125-1.478,4.375-2.8c1.25-1.331,1.875-2.682,1.875-4.051
				c0-1.366-0.617-2.55-1.85-3.55c-1.059-0.806-2.117-1.405-3.176-1.8C989.773,461.429,988.924,463.204,987.575,465.625z"/>
		</g>
		<g>
			<path fill-rule="evenodd" clip-rule="evenodd" fill="#B5BB4F" d="M906.85,473.75c-1.8,1.8-3.982,2.7-6.55,2.7
				c-2.566,0-4.75-0.9-6.55-2.7s-2.7-3.983-2.7-6.55s0.9-4.75,2.7-6.55c1.8-1.801,3.983-2.7,6.55-2.7c2.567,0,4.75,0.899,6.55,2.7
				c1.801,1.8,2.7,3.983,2.7,6.55S908.65,471.95,906.85,473.75z"/>
			<path fill-rule="evenodd" clip-rule="evenodd" fill="#B5BB4F" d="M915.125,466.125c2.732,4.919,3.658,7.744,2.775,8.475
				c-1.07-0.515-2.438-1.048-4.101-1.6c-1.666-0.544-3.125-1.478-4.375-2.8c-1.249-1.331-1.874-2.681-1.875-4.05
				c0-1.367,0.617-2.551,1.851-3.551c1.059-0.806,2.117-1.405,3.175-1.8C912.927,461.929,913.777,463.704,915.125,466.125z"/>
			<path fill-rule="evenodd" clip-rule="evenodd" fill="#B5BB4F" d="M884.075,466.125c-2.733,4.919-3.657,7.744-2.774,8.475
				c1.07-0.515,2.435-1.048,4.1-1.6c1.666-0.544,3.125-1.478,4.375-2.8c1.25-1.331,1.875-2.682,1.875-4.051
				c0-1.366-0.617-2.55-1.85-3.55c-1.059-0.806-2.117-1.405-3.176-1.8C886.273,461.929,885.424,463.704,884.075,466.125z"/>
		</g>
	</g>
</g>
</svg>
