<?xml version="1.0" encoding="utf-8"?>
<!-- Generator: Adobe Illustrator 17.0.0, SVG Export Plug-In . SVG Version: 6.00 Build 0)  -->
<!DOCTYPE svg PUBLIC "-//W3C//DTD SVG 1.1//EN" "http://www.w3.org/Graphics/SVG/1.1/DTD/svg11.dtd">
<svg version="1.1" id="Слой_1" xmlns="http://www.w3.org/2000/svg" xmlns:xlink="http://www.w3.org/1999/xlink" x="0px" y="0px"
	 width="128px" height="128px" viewBox="0 0 128 128" enable-background="new 0 0 128 128" xml:space="preserve">
<g>
	<path fill="#EE332F" d="M76.595,111.798c-2.159,1.978-4.894,3.943-6.911,5.513c-3.07,2.391-6.38,2.573-9.916,1.355
		c-2.06-0.71-3.971-1.733-5.618-3.129C40.801,104.213,27.4,92.939,16.054,79.494C8.124,70.099,1.632,60.01,0.295,47.38
		c-0.045-0.424-0.349-3.56-0.286-6.759c0.051-2.575,0.454-5.296,0.549-5.865C3.261,18.558,16.385,5.446,31.106,4.338
		c0.891-0.193,2.052-0.767,2.535,0.26c0.524,1.115-0.781,1.532-1.504,1.985C15.804,16.806,9.594,42.76,18.942,60.926
		c8.215,15.964,18.651,30.11,31.145,42.86c2.643,2.697,5.649,4.967,8.7,7.172c3.937,2.845,8.15,3.158,12.6,1.317
		C72.585,111.78,75.268,110.688,76.595,111.798z"/>
	<path fill="#F04F4E" d="M75.137,112.023c-2.127,0.779-4.197,1.852-6.392,2.276c-4.32,0.834-8.274-0.353-11.645-3.186
		C38.284,95.301,23.148,76.566,15.095,53.203C9.051,35.67,17.572,13.413,33.159,4.735c-0.751-0.145-1.401-0.27-2.053-0.396
		C44.335,2.11,55.048,6.865,64.147,16.186c1.078,1.105,1.684,2.855,3.612,2.936c2.355,3.092,3.981,6.576,5.399,10.61
		C76.381,17.283,82.689,8.081,95.185,4.33c13.413-1.891,25.237,5.339,29.905,18.522c4.803,13.565,3.05,26.748-2.852,39.569
		c-4.554,9.894-10.845,18.619-18.819,25.977c-8.298,7.657-16.971,14.909-25.491,22.324
		C77.136,111.412,76.394,112.295,75.137,112.023z"/>
	<path fill="#EE3331" d="M95.185,4.33C93.6,6.312,91.13,6.826,89.044,7.946C80.565,12.497,77.02,20.446,74.262,28.98
		c-0.24,0.741-0.483,1.482-0.751,2.213c-0.03,0.083-0.237,0.101-0.743,0.296c-0.881-4.456-4.225-7.847-5.007-12.368
		C74.429,9.608,83.617,4.764,95.185,4.33z"/>
	<path fill="#F3787A" d="M41.719,10.083c6.285,0.001,10.864,2.89,12.494,7.559c0.618,1.769,0.502,3.358-0.733,4.442
		c-1.625,1.426-2.161-0.802-3.108-1.45c-4.619-3.161-9.706-4.379-15.25-4.107c-1.11,0.054-2.734,0.689-3.278-0.658
		c-0.548-1.359,0.692-2.468,1.633-3.407C35.776,10.165,38.72,10.007,41.719,10.083z"/>
	<path fill="#F3787A" d="M101.096,9.306c3.729-0.647,6.888,0.83,9.885,2.705c1.761,1.102,3.071,2.579,2.846,4.939
		c-0.174,1.83-0.968,2.671-2.543,1.391c-4.339-3.524-9.419-4.176-14.731-4.24c-1.234-0.015-3.139,0.721-3.513-0.966
		c-0.42-1.895,1.48-2.601,2.914-3.328C97.604,8.971,99.394,9.456,101.096,9.306z"/>
</g>
</svg>
